<?xml version="1.0" encoding="UTF-8"?>
<svg id="Layer_1" xmlns="http://www.w3.org/2000/svg" version="1.1" viewBox="0 0 1701.8 1297">
  <!-- Generator: Adobe Illustrator 30.4.0, SVG Export Plug-In . SVG Version: 2.1.4 Build 226)  -->
  <defs>
    <style>
      .st0 {
        fill: #8ed4ef;
      }

      .st1 {
        fill: #fce0b1;
      }

      .st2 {
        fill: #fce7c1;
      }

      .st3 {
        fill: #fbb8cb;
      }

      .st4 {
        fill: #292929;
      }

      .st5 {
        fill: #774c2a;
      }

      .st6 {
        fill: #c87b3a;
      }

      .st7 {
        fill: #fc7803;
      }

      .st8 {
        fill: #f1bd81;
      }

      .st9 {
        fill: #ebad6c;
      }

      .st10 {
        fill: #b55917;
      }

      .st11 {
        fill: #9d83df;
      }

      .st12 {
        fill: #fa939b;
      }

      .st13 {
        fill: #bababa;
      }

      .st14 {
        fill: #f8f7f6;
      }

      .st15 {
        fill: #c6b6ef;
      }

      .st16 {
        fill: #82522b;
      }

      .st17 {
        fill: #8c5b35;
      }

      .st18 {
        fill: #f2f2f2;
      }

      .st19 {
        fill: #cee56e;
      }

      .st20 {
        fill: #fdc729;
      }

      .st21 {
        fill: #b1662d;
      }

      .st22 {
        fill: #94c53e;
      }

      .st23 {
        fill: #f67066;
      }

      .st24 {
        fill: #eaab6a;
      }

      .st25 {
        fill: #2e82ed;
      }

      .st26 {
        fill: #f9ce95;
      }

      .st27 {
        fill: #1a1a1a;
      }

      .st28 {
        fill: #525072;
      }
    </style>
  </defs>
  <g id="Conejo">
    <g id="Conejo1">
      <path class="st0" d="M1195.2,326c20.9,27.1,6.4,56.4-19.3,74.7s-74.3,28.7-113.2,27c-39.1-1.7-86.3-14.6-109.5-46.6-12.5-17.2-12.4-39,1.1-55.5.9-33.8,11.1-63.3,35.6-87-11-33.3-22.2-91.4-4-119s14.1-13.5,23.5-13.9,18.7,4,25.1,12c8,10.2,11.3,22.5,13.4,35.6,2.5,19.1,2.1,37.7,1.4,57.1,18-3.3,35.1-3.2,52.2,0-.7-20.8-.5-40.9,3.2-60.9,2.8-13.9,7.6-26.7,17.8-36.1,12.9-11.4,31.2-10,42,3.2,6.2,7.5,9.2,16.5,10.6,26.4,2.9,33-4.2,64.9-14.6,95.9,24.2,24.1,34.1,52.9,34.7,87.1h0ZM1033.4,214.3c1.7-23.1,2-50.6-9-70.6-3.1-4.4-7.8-9-13.5-8.6s-12.1,5.8-14.4,12.1c-8.1,22.8-1.2,56.8,6.1,81.7,10.2-6.6,19.8-11.3,30.8-14.6h0ZM1148.1,229c6.7-20.4,10.8-41.2,10.9-62.6s-4.3-29.8-15.9-31.1-19.2,13.3-22.1,26.2c-2.9,12.9-4.5,34.8-3.3,52.7,10.9,3.6,20.3,8.1,30.5,14.7h-.1ZM1033.4,345.4c3.8-2.8,7.5-7.1,9.4-11.8,4.6-11.2,2.7-25-4.7-34.3s-11.1-9.6-17.9-9.7-14.1,3.2-19,9.5c-9.2,11.8-10,29.5-1.2,41.8,8.1,11.2,22.5,12.4,33.4,4.5ZM1152.3,335.4c4.9-12,3.7-25.7-3.7-35.6-7.6-10.1-20.4-13.6-31-6.2-16.2,11.4-18.7,35.3-4.9,49.6,6.1,6.3,14.1,8.6,22.9,6.8s13.4-6.6,16.7-14.6h0ZM1089.7,340.2c-1.8-7.1-19.2-9-27.6-3.4s-2.3,9.8,1.3,12.7,7.8,5.5,12.7,5,15.1-8.4,13.6-14.4h0ZM1054.9,392.8c5.3,5.1,11.9,8,19.8,7.6,7.4.4,14.9-2.1,19.2-7.6,12.3-8.9,15.8-34.3,8.1-32.1l-12.2,3.4c-9.8,1.2-19.7,1.3-29.8.1l-13.5-3.7c-6.2-1.7-5.7,18.8,8.3,32.4h.1Z"/>
      <path class="st12" d="M1033.4,214.3c-11.1,3.3-20.7,8-30.8,14.6-7.3-24.9-14.2-58.9-6.1-81.7,2.3-6.3,7.6-11.7,14.4-12.1s10.4,4.2,13.5,8.6c11,19.9,10.7,47.4,9,70.6h0Z"/>
      <path class="st12" d="M1148.1,229c-10.2-6.6-19.6-11.1-30.5-14.7-1.2-17.9-.6-35.3,3.3-52.7s10.5-27.5,22.1-26.2,16,17.6,15.9,31.1c0,21.4-4.2,42.1-10.9,62.6h.1Z"/>
      <path class="st14" d="M1152.3,335.4c-3.3,8.1-10,13.3-16.7,14.6s-16.8-.5-22.9-6.8c-13.8-14.2-11.3-38.2,4.9-49.6s23.4-4,31,6.2c7.4,9.9,8.6,23.6,3.7,35.6h0ZM1113.3,341.2c5.6,5.5,13.6,4.6,18.5-.9,7.5-8.3,7.9-21.2,1.2-30.1s-13.1-7-18.5-2.1c2.5,1.1,5,2.1,5.6,3.5s.5,4.8-.4,6.7-4.8,3.1-6.2,2.3-2.5-2.6-4.1-4.8c-3.5,8.3-2.9,18.6,4,25.3h0Z"/>
      <path class="st14" d="M1042.8,333.7l-2.4-.2c2.1-7.6,1.5-15.9-3.1-22.6-4.6-6.6-13.3-8.1-18.9-2.8,3.4,1.1,5.6,3.2,5.8,6.3s-2,5.9-5.1,6.2-4.3-1.6-6.1-4.5c-5.3,10.2-.9,22.7,9.3,28.8l9-.3h1.7c.4,0,.5.4.3.9-10.9,7.9-25.3,6.7-33.4-4.5-8.8-12.2-8-30,1.2-41.8s11.6-9.6,19-9.5,13.1,3.6,17.9,9.7c7.4,9.3,9.4,23.1,4.7,34.3h0Z"/>
      <path class="st4" d="M1060.1,364.2c0,3,.3,8.7,3,10.8,6.2,4.9,16.3,4.9,22.8.6s3.4-8,4-11.6l12.2-3.4c7.7-2.1,4.1,23.3-8.1,32.1-10.3-11-28.3-10.8-39.1,0-14.1-13.5-14.6-34.1-8.3-32.4l13.5,3.7v.2Z"/>
      <path class="st12" d="M1089.7,340.2c1.5,6-7,13.6-13.6,14.4s-8.9-1.9-12.7-5-5.7-9.7-1.3-12.7c8.4-5.6,25.8-3.7,27.6,3.4h0Z"/>
      <path class="st23" d="M1094,392.8c-4.4,5.5-11.9,8-19.2,7.6-8,.4-14.5-2.5-19.8-7.6,10.8-10.8,28.7-11,39.1,0h0Z"/>
      <path class="st14" d="M1089.9,364c-.6,3.6-.6,9.4-4,11.6-6.5,4.2-16.6,4.3-22.8-.6s-3-7.8-3-10.8c10,1.2,20,1.1,29.8-.1h0Z"/>
      <path class="st18" d="M1042.8,333.7c-2,4.7-5.6,9-9.4,11.8.2-.5,0-1-.3-1h-1.7c4-2.7,7.8-6.5,9.1-11l2.4.2h0Z"/>
      <path class="st27" d="M1113.3,341.2c-6.8-6.8-7.4-17-4-25.3,1.6,2.2,2.9,4,4.1,4.8s5.5-.7,6.2-2.3,1.2-5,.4-6.7-3.2-2.5-5.6-3.5c5.5-4.9,13.9-4.1,18.5,2.1,6.7,8.9,6.3,21.8-1.2,30.1-4.9,5.5-12.9,6.4-18.5.9h0Z"/>
      <path class="st27" d="M1040.4,333.5c-1.3,4.5-5.1,8.3-9.1,11.1l-9,.3c-10.3-6.1-14.7-18.6-9.3-28.8,1.8,2.9,4.1,4.7,6.1,4.5,3.1-.3,5.3-2.9,5.1-6.2s-2.4-5.3-5.8-6.3c5.6-5.3,14.4-3.7,18.9,2.8,4.6,6.7,5.2,15,3.1,22.6Z"/>
    </g>
  </g>
  <g id="Ciervo">
    <g id="Oso">
      <path class="st21" d="M803.8,327.3c.6,46.5-33.6,73.2-76.2,84.6s-109.9,8.7-150.6-20.3-31.1-34.2-32-58.3c-1.1-28.2,4.4-56.1,14.2-82.7-16.4-8.7-25.7-25.8-23.9-44.2,1.5-16.1,10.6-29.5,24.7-37.1,21.8-11.8,48.3-2.9,58.6,19.2,36.6-15.6,77.4-15.4,113.4.8,7.2-13.8,20.1-22.1,34-23.6,15.3-1.7,30.1,5.2,39.4,17.4,8.6,11.3,11.9,25.1,8.1,39.9s-11.5,22.4-23.7,28.6c9,24.5,13.6,49.7,13.9,75.8h0ZM601.4,199c-7.9-13.4-24.8-16.3-36-6.4-6,5.3-9.2,13.3-8.3,21.2s4.8,14.9,12.1,18.7c9-13.7,19.5-24.7,32.2-33.5h0ZM780.4,233.6c13.7-7.4,17.5-25,7.6-37.1-5.2-6.4-12.9-9.4-20.7-8.5s-14.4,5-17.8,12c12.9,9.3,22.9,20.1,30.8,33.6h.1ZM632.2,327.4l3.9-.5c.4,0,1-1.7.9-2.1l1.4-.3,1.8-2.9c8.9-12.2,6.2-32.7-5.5-43.6s-25.1-7.7-34,3.5c-9,11.4-9.4,28.5-1.8,41.1s19,13.9,30.4,9.1,2.9-2.6,2.9-4.2h0ZM751,319.6c5.9-12.6,4.8-27.7-3.4-38.3s-10.7-9.1-17.1-9.5c-6.6-.4-12.8,2.4-17.7,7.3-11.4,11.4-13.6,29.8-4.7,43.3s13.5,12,22.3,11.5,16.4-5.4,20.5-14.3h.1ZM657.8,320.7c-10.7,3.4-21.1,9.8-27.1,20.2s-3.9,29.6,7.4,39.7c19,17,53.2,16.9,72.3.2,13.9-12.2,15.5-31.9,3.2-46-6.7-7.6-16-12.6-25.9-15-10.4-2.6-20.4-2.1-30,.9h.1Z"/>
      <path class="st8" d="M657.8,320.7l3.8,4.2c-3.4.8-6.9,3.5-8.2,5.7-4.6,7.7,6.4,20.1,18.7,22.8v17.8c-12.3-.7-12.6-10.1-16.3-8.9-5.3,1.7,2.9,14.1,16.4,14.4,9.4.9,17.7-2.9,22.8-10.6l-.6-3.5c0-.8-3.3-.3-3.8.4-2.6,4-8.3,8.5-13.5,7.9v-17.7c8-2.2,14.5-6.7,17.9-14.2s1.5-8.3-1.6-10.8-4.6-3.1-6.2-3.5l2.5-2.8c.5-.4-2.5-1.9-1.8-2.2,9.8,2.4,19.2,7.4,25.9,15,12.3,14.1,10.7,33.8-3.2,46-19.1,16.7-53.3,16.8-72.3-.2s-15.1-26.4-7.4-39.7c7.7-13.3,16.4-16.8,27.1-20.2h-.2Z"/>
      <path class="st14" d="M751,319.6c-4.2,8.9-12,13.8-20.5,14.3s-17.2-3.7-22.3-11.5c-8.9-13.5-6.7-31.9,4.7-43.3s11.1-7.7,17.7-7.3c6.3.4,12.6,3.8,17.1,9.5,8.3,10.6,9.3,25.7,3.4,38.3h-.1ZM710.8,322.4c2.6,3.6,7.1,5.8,10.8,5.6s7.5-2.2,10-5.2c6.9-8.5,7.2-20.8.9-29.5-4.7-6.5-13.1-7.2-18.5-2.3,2.5.8,5,2.1,5.6,3.6s.4,4.7-.7,6.6-4.5,2.7-5.8,2-2.7-2.9-4.1-5.3c-3.5,7.9-3.5,17.1,1.8,24.5h0Z"/>
      <path class="st14" d="M640.2,321.5l-1.6-1.6c4.4-7.4,3.8-18.2-1-25.9-4.2-6.7-12.9-8.9-19.1-3.8,2.4,1.4,5,3.2,5.5,4.9s-.4,5.5-2.1,7-4.8,1.7-5.5.6l-3.5-4.9c-4,9.1-2.3,19.4,4.5,26.3s9,4.1,14.8,3.2c0,1.6-1.1,3.4-2.9,4.2-11.4,4.8-23.8,1.7-30.4-9.1s-7.2-29.7,1.8-41.1c8.9-11.2,23.8-13,34-3.5s14.4,31.4,5.5,43.6h0Z"/>
      <path class="st24" d="M601.4,199c-12.7,8.8-23.2,19.8-32.2,33.5-7.4-3.7-11.3-11.4-12.1-18.7s2.3-15.8,8.3-21.2c11.2-9.9,28.1-7,36,6.4h0Z"/>
      <path class="st24" d="M780.4,233.6c-7.9-13.5-17.9-24.3-30.8-33.6,3.3-7,10.5-11.2,17.8-12s15.5,2.2,20.7,8.5c9.8,12.1,6,29.7-7.6,37.1h-.1Z"/>
      <path class="st27" d="M638.7,320l-1.6,2.7c-.2.4,0,1.6,0,2s-.5,2.1-.9,2.1l-2.3-1.4c-.7-.1-1.5,1.4-1.6,1.9-5.9.9-10.7.9-14.8-3.2-6.8-6.9-8.5-17.2-4.5-26.3l3.5,4.9c.8,1.1,4.5.3,5.5-.6,1.6-1.5,2.7-5,2.1-7s-3.1-3.5-5.5-4.9c6.2-5.1,14.9-2.9,19.1,3.8,4.8,7.8,5.4,18.5,1,25.9h0Z"/>
      <path class="st9" d="M687.8,319.7c-.7.3,2.3,1.8,1.8,2.2l-2.5,2.8c-8.2-1.8-17.1-2-25.5,0l-3.8-4.2c9.6-3,19.6-3.5,30-.9h0Z"/>
      <polygon class="st2" points="640.2 321.5 638.5 324.4 637.1 322.7 638.7 320 640.2 321.5"/>
      <path class="st2" d="M636.1,326.8l-3.9.5c.1-.6,1-2.1,1.6-1.9l2.3,1.4Z"/>
      <path class="st14" d="M638.5,324.4l-1.4.3c0-.5-.2-1.7,0-2l1.4,1.7Z"/>
      <path class="st27" d="M687.1,324.8c1.6.4,4.9,2.4,6.2,3.5,3,2.5,3.1,7.5,1.6,10.8-3.4,7.5-9.9,12.1-18,14.2v17.7c5.3.6,11-3.9,13.6-7.9s3.6-1.3,3.8-.4l.6,3.5c-5.1,7.6-13.4,11.4-22.8,10.6-13.6-.3-21.7-12.7-16.4-14.4s4.1,8.2,16.2,8.9v-17.8c-12.2-2.7-23.2-15.1-18.6-22.8,1.3-2.2,4.9-4.9,8.2-5.7,8.4-2.1,17.4-1.9,25.5,0v-.2Z"/>
      <path class="st27" d="M710.8,322.4c-5.3-7.4-5.4-16.6-1.8-24.5,1.5,2.4,2.8,4.6,4.1,5.3s5.1-.7,5.8-2c1.1-1.9,1.4-4.8.7-6.6s-3.1-2.8-5.6-3.6c5.4-5,13.9-4.3,18.5,2.3,6.3,8.7,6,21-.9,29.5-2.5,3.1-6.5,5.1-10,5.2s-8.2-2-10.8-5.6h0Z"/>
    </g>
  </g>
  <g>
    <path class="st7" d="M385.3,374.5c-11.9-20.1-31.3-35.2-54.1-36.8,9.2-13.5,12.2-30.7,5.8-46s-13-18-24.4-18.5-14.7,5.1-20.6,13.5c-11.6,16.1-11.4,43.7,2.9,58-5.5,4.9-14.2,7.4-21.7,8,1-3.5-1.2-7.6-4.8-8.9-12.7-4.6-34.9-1.2-33.2,8.3-7.6-.5-15-2.8-21.1-7.2,15.1-18,15.4-44.9.1-62.5-6.9-7.8-17.8-10.6-27.1-6.7-21.2,9-23.9,41.9-10.5,62.4-22.7,2.6-40.6,17.4-52.8,37.1l-16.2-14c-2.4-2-3-6.4-.8-8.5l10.5-10c-6.9-6.2-15.9-15.2-12.8-19.2s11.9-4.1,18.7-23.3l11.1-31c-10.1-30.2-15.1-61.7-12.1-93.3s6-36.2,22.2-32.7c11.7,2.3,21.7,7.4,31.8,13.7,16,10.3,29.5,23.1,42.1,37.4,24.5-6.1,49-6.5,73.7-.4,19.3-22.2,46.4-44.9,75.3-51.3,12.7-2.3,18.3,10.5,20.5,23.6,5.8,33.6,0,72-10.8,104.2,9,17.6,10.3,42.1,25.2,49.7s4.9,5.3,2.7,8.4c-3.5,4.9-7.1,8.3-12.2,13.1l10.7,11c1.1,1.1.8,5.4-.4,6.4l-18,15.4h.1ZM363.5,245.4c6.3-18.7,13.5-67.6.6-74.3s-37.1,20.4-47.4,32.5c19.4,9.5,34.5,23.5,46.9,41.8h0ZM148.2,245.4c12.2-18.2,26-31.6,45.3-41.3-10.3-13.3-25.3-27.6-40.6-33.6-9.7-2.3-12.5,10.4-12.4,22.2,0,18.1,2.5,35.8,7.8,52.8h0Z"/>
    <path class="st2" d="M331.1,337.7c22.8,1.7,42.2,16.7,54.1,36.8l-5.3,4.2c-41.4,32.7-99.8,54.5-153,44.7-24.1-4.5-46.4-12.8-67.6-24.7-12.6-7.1-24.6-14.2-35.5-23.6,12.3-19.7,30.1-34.4,52.8-37.1,7.7-.8,17.2,0,25,2.6l12.5,4.2c6,4.3,13.6,6.7,21.1,7.2,1.7,8.3,8.2,14.6,16,17.9,1.7,5-2.8,10.8-7.1,12.3-6.2,2.2-12-1.8-13.9-7.3s-3-2-3.7-1.6c-4.4,2.3,1.4,13.2,11.2,15.1,6.2,1.2,12.2-1.3,16.4-6.9,4.1,5.4,9.7,8.1,16.1,7.1,10.2-1.6,15.8-13.1,11.7-15s-3.5.7-3.9,1.9c-2,5.5-7.8,8.7-13.3,7.3s-9.5-7.6-7.8-12.8c7.7-3.4,13.8-9.1,16-17.4,7.7-.5,16.4-2.9,21.7-8l4.4-1c10.5-3.7,21.2-6.6,32-5.8h0Z"/>
    <path class="st10" d="M363.3,245.4c-13-18.4-29-32.4-49.4-42,10.8-12.1,38.5-37,49.6-32.3s6.7,56,.2,74.7l-.4-.4Z"/>
    <path class="st14" d="M214,344.8l-12.5-4.2c-7.7-2.6-17.3-3.5-25-2.6-13.4-20.5-10.8-53.4,10.5-62.4,9.3-3.9,20.2-1.2,27.1,6.7,15.3,17.5,15.1,44.6-.1,62.5h0ZM194,332.6c5.9,5.9,15.4,4.4,20.2-1.9,11.3-14.9,2.8-37.7-9.3-39.1s-7.4,1.4-9.9,3.6c2.5,1.1,4.9,2.3,5.6,3.7s1,4.7.3,6.7-4.2,4.2-6.4,3.6-3.5-3-5.3-5.6c-4.3,9.6-2.9,21.1,4.7,28.9h0Z"/>
    <path class="st10" d="M148.2,245.4c-5.3-17-7.7-34.7-7.8-52.8s2.8-24.5,12.4-22.2c15.3,6,30.3,20.3,40.6,33.6-19.3,9.8-33.1,23.2-45.3,41.3h0Z"/>
    <path class="st14" d="M331.1,337.7c-10.8-.8-21.4,2.2-32,5.8l-4.4,1c-14.3-14.3-14.5-41.9-2.9-58s15.5-13.8,25.9-11.8c10.4,2.1,15.7,8.6,19.1,16.8,6.4,15.4,3.4,32.5-5.8,46h0ZM292.7,329.6c2.5,4.1,6.9,6.7,11.1,6.7s8.1-1.9,10.9-5.2c8.1-9.4,8.9-24.3,1.6-34.2-5.1-6.9-13.7-7.1-19.7-2.1,2,.4,4.7,1,5.9,2s1.8,4,1.8,5.7c-.2,3.5-3,6.3-6.3,6.1s-4.2-2.7-6.2-5.7c-3.7,8.6-3.9,18.4,1.1,26.6h-.2Z"/>
    <path class="st27" d="M273.1,352.5c-2.2,8.4-8.3,14-16,17.4-1.8,5.2,2.5,11.4,7.8,12.8s11.3-1.9,13.3-7.3,2.9-2.4,3.9-1.9c4.1,2-1.5,13.4-11.7,15-10.2,1.6-12.1-1.8-16.1-7.1-4.3,5.6-10.3,8-16.4,6.9-9.8-1.8-15.5-12.8-11.2-15.1s3.4.7,3.7,1.6c1.9,5.5,7.7,9.5,13.9,7.3s8.8-7.3,7.1-12.3c-7.9-3.3-14.2-9.6-16-17.9s17.7-13.5,33.2-8.3c3.4.9,5.6,5.2,4.8,8.9h0Z"/>
    <path class="st27" d="M194,332.6c-7.7-7.8-9.1-19.4-4.7-28.9,1.8,2.6,3.5,5.2,5.3,5.6s5.6-1.5,6.4-3.6.5-5.1-.3-6.7-3.1-2.6-5.6-3.7c2.5-2.2,6.3-4,9.9-3.6,12.1,1.4,20.6,24.1,9.3,39.1-11.3,15-14.3,7.9-20.2,1.9h0Z"/>
    <path class="st27" d="M292.7,329.6c-5-8.3-4.8-18-1.1-26.6,2,3,4.1,5.5,6.2,5.7,3.3.2,6.1-2.7,6.3-6.1s-.8-4.8-1.8-5.7-3.8-1.6-5.9-2c6-5,14.6-4.8,19.7,2.1,7.3,9.9,6.6,24.7-1.6,34.2-2.8,3.3-7.1,5.2-10.9,5.2s-8.6-2.5-11.1-6.7h.2Z"/>
  </g>
  <g id="Rana">
    <g id="Rana1">
      <path class="st22" d="M1556.6,397.9c0-2-1.3-4.5-2.2-5.6-12.8-14.9-29-25.4-48-31-41.1-12-93.5-4.4-122.1,28l-5.5,8.2c-8.4-4.7-15.5-10.4-22.2-17.2-34.5-35-27.2-88.3,7.5-122.1-9.2-22.1-2.8-47.4,17.2-60.9,11.8-8,25.7-9.6,39.7-4.6,11,3.9,20.1,14.5,25.2,25.8,14.9-2.4,30.3-3,44.8.2,2.6-6.6,5.7-11.1,10.1-15.7,15.8-16.6,41-17.7,58.6-2.7,16.7,14.3,21.1,37.4,12.6,57.7,17.9,17.5,28.5,39.7,29.7,64.3,1.6,33.3-17.2,59.6-45.2,75.5h-.2ZM1424.9,261.3c10-11.3,11.1-27.8,4.2-40.7s-13-13.7-22-14.6c-9.1-.9-17.8,3-23.9,10.4-10.5,12.9-10.7,32,0,44.9,10.9,13.2,30.1,13.1,41.7,0h0ZM1554.2,259.7c9-12.6,8.7-29,.4-41.6s-13.4-11.8-21.8-12-16.4,3.4-22.3,10.6c-10.8,13.1-9.9,32.4,1.5,45s13.3,9.8,21.8,9.5,15.2-4.1,20.5-11.5h0ZM1398.4,304.8c.2-4.8-2.1-8.6-6.3-11.4-9.2-6.3-22.6-5.2-29.2,4.4-4.4,6.4-.3,14.7,6.4,17.6,13.2,5.7,28.6,0,29.1-10.6ZM1570.3,313c3.1-2.5,4.9-6,4.9-9.1s-1.9-6.7-4.3-8.9c-7.4-6.5-16.9-7-25.2-2.3s-7.2,5.8-7.5,10.3,1.5,8.5,5.5,11.2c7.8,5.3,18.9,5.1,26.6-1.2ZM1493,324.3c-15.9,6.4-33.4,6.1-49.5,0s-16-13.9-19.3-9.6-.3,3.4.5,4.3c21.4,21.2,66.4,21.2,86.7-.3s.5-4-.4-4.5c-3.6-2.3-6.2,5.3-18,10.1h0Z"/>
      <path class="st19" d="M1556.6,397.9c-36.3,20.6-80.3,24.8-121.6,18.8-20.2-2.9-38.8-9.3-56.3-19.2l5.5-8.2c28.6-32.4,81-40,122.1-28,19.1,5.6,35.3,16.1,48,31,1,1.1,2.1,3.7,2.2,5.6h.1Z"/>
      <path class="st14" d="M1424.9,261.3c-11.6,13.1-30.8,13.2-41.7,0-10.7-12.9-10.5-32,0-44.9,6.1-7.5,14.8-11.3,23.9-10.4,9,.8,17.4,5.9,22,14.6,6.8,12.9,5.8,29.4-4.2,40.7h0ZM1402.3,261.7c7.8,6.3,18.3,3.8,22.7-4.5,4.8-9,4.7-20.1-1-28.4-5.4-7.8-15.6-9.3-22.3-3,2.5.9,4.4,1.4,5.4,2.2s1.7,4,1.5,5.3c-.4,3.2-2.8,5.7-6,5.4s-4.3-2.5-6-5.6c-4.6,9.1-3,21.5,5.6,28.5h.1Z"/>
      <path class="st14" d="M1554.2,259.7c-5.3,7.4-12.7,11.2-20.5,11.5s-16-3-21.8-9.5c-11.4-12.6-12.2-31.9-1.5-45s13.4-10.8,22.3-10.6,16.7,4.3,21.8,12c8.3,12.5,8.6,29-.4,41.6h0ZM1512.3,258.9c5.9,8,16.4,8.2,22.9,1.3s8.8-22.5,1.5-32-15.2-8.1-21.6-2.1c3.2.4,5.7,1.5,6.6,3.6s.6,4.9-.5,6.7-5,3.1-7.1,2-2.4-2.9-3.9-5.5c-3.9,8.7-3.7,18.3,2,26.1h0Z"/>
      <path class="st12" d="M1398.4,304.8c-.5,10.6-15.9,16.3-29.1,10.6s-10.8-11.2-6.4-17.6c6.7-9.6,20-10.7,29.2-4.4,9.2,6.3,6.5,6.5,6.3,11.4Z"/>
      <path class="st12" d="M1570.3,313c-7.7,6.2-18.8,6.4-26.6,1.2-4-2.7-5.8-6.8-5.5-11.2s3.2-7.9,7.5-10.3c8.4-4.7,17.8-4.1,25.2,2.3s4.3,5.7,4.3,8.9-1.7,6.6-4.9,9.1Z"/>
      <path class="st4" d="M1493,324.3c11.8-4.8,14.4-12.4,18-10.1s1.3,3.6.4,4.5c-20.3,21.5-65.3,21.5-86.7.3s-1.1-3.4-.5-4.3c3.3-4.3,7.1,5,19.3,9.6s33.7,6.4,49.5,0h0Z"/>
      <path class="st27" d="M1402.3,261.7c-8.6-7-10.2-19.4-5.6-28.5,1.8,3.1,3.8,5.4,6,5.6,3.2.2,5.5-2.3,6-5.4s-.5-4.6-1.5-5.3-2.9-1.3-5.4-2.2c6.6-6.3,16.9-4.8,22.3,3,5.7,8.2,5.8,19.4,1,28.4-4.4,8.3-14.9,10.8-22.7,4.5h-.1Z"/>
      <path class="st27" d="M1512.3,258.9c-5.7-7.7-5.9-17.4-2-26.1,1.5,2.6,2.5,4.8,3.9,5.5,2,1.1,5.9,0,7.1-2s1.3-4.9.5-6.7-3.4-3.1-6.6-3.6c6.5-6,16.1-5.2,21.6,2.1s6.7,23.2-1.5,32-17,6.8-22.9-1.3h0Z"/>
    </g>
  </g>
  <g id="Koala">
    <g id="Koala1">
      <path class="st13" d="M1113.7,1179.3c1.8-3.2,4.3-6.8,5-10.6,2.7-15.4-7.6-31.2-21.8-34.6-.6.7-1.7-.2-2.2-1.5l-11.9-1.6-2.5-.2c-.7,0-.8-1.6-1-2.2,11.4,0,20.4-9.1,21.7-20.7,2.4-21.4-7-50.2-26.6-49.8-19.2.4-28.3,28.3-26.3,48.5,1.3,12.4,10.3,20.8,22.5,22.1l.2,1.7c0,.4-1.4.7-2,.7l-10.8.9h-2.2l-1,1.2c-.3.4-1.3.7-1.8.9-16,4.5-26.8,21.6-21.7,38.4l2.9,6.7c-38.7-7.2-74.6-26.4-81.2-67.5-2.2-13.8-1.7-27,.9-40.9.2-.7-1-3.9-1.9-3.6l-3.8,1.2c-11.7-.8-19.8-11.5-22.1-22.7-2.1.2-5.1.4-6.2,0s-2.1-2.3-3-4c-7.4-13.9-6.6-30.2-.2-44.2l-4.3-1.8c-.9-.4-.9-3.6-.6-4.7,3.5-15.3,16.8-30.1,31.8-35l-1.2-3.5c-.3-.8,1-2.2,1.8-3,29.5-15.5,64.3-6.1,78.7,25.3,33.4-13.8,70.1-13.7,103.9-.2,13.1-29.7,48.7-41,76.8-25.5,2.2,1.2,2.5,4.1.8,6.7,15.9,4.2,32.2,23,33,38.1s-2.5,3.5-4.2,4.5c6.9,15.8,5.6,33.6-4,48l-7,.8c-2.4,10.1-9.7,20-20.2,21.1s-3.8-1.9-4.5-1.2l-2.5,2.3c5.7,32.9,2.6,63.6-24.1,86-16.2,13.5-36.3,20.5-57.2,24.2v-.2ZM960,1047.3c5.7-17.7,14.3-33.3,26.6-46.8l12.6-11.4c-8.4-12.2-25.2-15.2-38.4-7.3-21,12.7-25.2,42.2-8.2,60.1s4.7,3.7,7.4,5.4h0ZM1189.7,1047.3c5.4-4,9.2-7.2,11.9-11.8,10.3-16.7,6.5-38.6-8.6-50.8-13.3-10.7-31.8-9.4-42.5,4.2,19.5,15.8,30.8,34.6,39.2,58.3h0ZM1034.9,1104.3c6.9-12.6,5.3-28.2-4.1-38.3-8.9-9.6-22.5-9.5-31.4-.5-13.2,13.4-11.9,39.6,3.9,48.6s25,1.8,31.5-9.9h0ZM1111.2,1097.5c.6,3.5,1.4,6.2,4,8.7l5.2,5.2c4.7,4.7,11.3,6.4,18,5.5s12.2-4.7,15.8-10.9c7.2-12.2,6-28.5-3.1-39.2s-21.5-10.6-30.8-2.4c-9.6,8.5-11.4,21-9.2,33.1h0Z"/>
      <path class="st18" d="M1053.1,1133.9c-.3,2.8.9,6.1,3.2,8.5,9,8.9,24,9.9,34.1,2.2s5.5-6.3,6.5-10.5c14.2,3.4,24.5,19.1,21.8,34.6s-3.2,7.4-5,10.6c-26.4,4.6-53,4.7-79.4-.2l-2.9-6.7c-5.1-16.9,5.7-33.9,21.7-38.4h0Z"/>
      <path class="st4" d="M1079.3,1128.5h-8.7c-12.2-1.2-21.3-9.6-22.5-22.1-2.1-20.2,7.1-48.1,26.3-48.5,19.6-.4,29,28.4,26.6,49.8-1.3,11.6-10.3,20.7-21.7,20.7h0Z"/>
      <path class="st3" d="M960,1047.3c-2.7-1.7-5.5-3.4-7.4-5.4-17-17.8-12.9-47.4,8.2-60.1,13.1-7.9,30-4.9,38.4,7.3l-12.6,11.4c-12.3,13.5-20.9,29-26.6,46.8h0Z"/>
      <path class="st3" d="M1189.7,1047.3c-8.4-23.7-19.7-42.6-39.2-58.3,10.7-13.6,29.3-14.9,42.5-4.2,15.1,12.2,18.9,34.1,8.6,50.8s-6.6,7.8-11.9,11.8h0Z"/>
      <path class="st14" d="M1034.9,1104.3c-6.5,11.7-20.4,16.2-31.5,9.9-15.8-9.1-17.1-35.2-3.9-48.6s22.5-9.1,31.4.5c9.4,10.1,11,25.8,4.1,38.3h0ZM1013,1108c6,5.5,14.8,4.5,19-2.1,5.2-8.1,5.2-19.1-.2-27-4.4-6.5-12.9-7.6-18.2-2.5,3.5,1.1,5.6,3.2,5.7,5.9s-1.7,5.4-4.7,5.9-4.4-2.4-5.9-5c-3.7,8.5-2.7,18.4,4.2,24.8h.1Z"/>
      <path class="st14" d="M1120.4,1111.5l1.4-1.4c5.9,3.3,12.9.8,16.6-4.7,5.4-8.2,5.2-18.7-.4-26.7s-12.4-6.8-17.4-2.4c2.8,1.6,4.8,3.4,5.2,5.3s-1.1,5.8-2.9,6.4c-3.9,1.3-5.7-1.2-7.6-4.8-1.8,4.4-2.8,9.6-1.9,14.1l-2.3.3c-2.2-12.1-.5-24.7,9.2-33.1,9.3-8.2,22.5-7.4,30.8,2.4s10.3,27,3.1,39.2c-3.7,6.2-9.7,10.1-15.8,10.9s-13.3-.9-18-5.5h0Z"/>
      <path class="st18" d="M1079.3,1128.5c.2.6.3,2.2,1,2.2l2.5.2,11.9,1.6c-1.8.4-3.4,1.6-4.5,3.6-3.1,5.5-9.3,7.8-14.9,7.9-8.3.2-16.8-4.6-17.2-12.2l10.8-.9c.6,0,1.9-.3,2-.7l-.2-1.7h8.7,0Z"/>
      <path class="st4" d="M1058.1,1131.9c.4,7.6,8.9,12.3,17.2,12.2s11.8-2.4,14.9-7.9,2.7-3.2,4.5-3.6c.5,1.3,1.7,2.2,2.2,1.5-1,4.2-3.1,7.9-6.5,10.5-10.1,7.7-25.1,6.7-34.1-2.2-2.4-2.4-3.5-5.7-3.2-8.5.5,0,1.4-.5,1.8-.9l1-1.1h2.2,0Z"/>
      <path class="st15" d="M1113.5,1097.2c1.1,5.2,3.9,10.4,8.3,12.9l-1.4,1.4-5.2-5.2c-2.6-2.6-3.4-5.2-4-8.7l2.3-.3h0Z"/>
      <path class="st18" d="M1054.9,1133.1l1-1.1-1,1.1Z"/>
      <path class="st27" d="M1013,1108c-7-6.4-7.9-16.3-4.2-24.8,1.5,2.6,3.6,5.3,5.9,5s4.8-3.4,4.7-5.9-2.2-4.8-5.7-5.9c5.3-5.1,13.8-3.9,18.2,2.5,5.4,7.9,5.4,18.8.2,27-4.2,6.6-13,7.6-19,2.1h-.1Z"/>
      <path class="st27" d="M1121.8,1110.1c-4.3-2.5-7.2-7.6-8.3-12.9s0-9.7,1.9-14.1c1.9,3.6,3.7,6.1,7.6,4.8s3.4-4.4,2.9-6.4-2.5-3.7-5.2-5.3c4.9-4.4,13.2-3.6,17.4,2.4s5.8,18.5.4,26.7-10.7,8.1-16.6,4.7h-.1Z"/>
    </g>
  </g>
  <g id="Pato">
    <g id="PAto">
      <path class="st20" d="M357.9,1155.4c-41.1,27.8-101.3,31.2-149.2,21.1-16.8-3.5-31.8-9.3-46.5-17.4-13.1-8-24.3-17.7-32-30.9-14.5-25-10.2-55.2,10.5-75.2,5.8-53.5,34.8-95.4,87.8-107.4-1.8-3.2-2.4-6.1-1.5-8.6s4.9-4.1,7.1-3.2c4.5,1.7,7.8,4.3,11.2,7.3-1.5-11.2-.4-24.7,8.1-26.7,7.3-1.7,12,12.6,13.5,22.8,5.4-9.7,14.6-17,21.1-12.7s2.3,12.9-3,20.9c54.1,11.3,83.7,54.4,88.7,108.1,20.4,18.9,24.4,48.4,11.1,72.8s-15.4,21.5-26.8,29.2h-.1ZM219.5,1082c2.9-2.8,5.3-6,6.8-9.7,5-11.9,2.9-26-5.7-35.7s-11-7.8-17.6-7.4c-6.1.4-12.1,3.5-16.5,9-9,11.4-9.7,28.5-1.3,40.5,8.1,11.7,24.4,12.7,34.2,3.2h.1ZM287.1,1070.5c1.9,5.8,5,9.9,9.9,13.5,9.7,7.1,23.5,5.7,31.2-4.6s8.4-27.2.9-39.1c-4.3-6.8-11-10.6-18.5-10.9-7.6-.3-14.9,3.6-19.5,10.2s-7.4,20.6-4,31h0ZM241.6,1136.9c9.6,7.9,20.6,8.4,30,1,9.5-7.5,15.9-18.3,20.2-29.6,3.3-1.2,6.8-3.4,7.5-6.2s-.9-6.7-3.8-8.2c-7.8-4-14-8.9-20.4-14.5-10.6-9.3-24.6-9.1-35.3,0s-13.3,10.7-21.2,14.6-5.8,8.3-2.1,10.9l6.5,4.6c4.1,10.5,9.9,20.2,18.8,27.4h-.2ZM187.7,1105.8c5.1-5,2.8-12.6-2-16.3s-14.7-5.7-22.1-2.3-5.8,5.1-6.5,8.1,0,7.6,2.7,10.2c7.4,7,20.2,7.7,27.9.3ZM352,1107.4c5.9-3.7,7.3-12.2,2-17.4-7.9-7.6-21.3-6.5-28.2,2.1s-2.8,6.4-2,9.6c2,8,16.7,12.9,28.2,5.7h0Z"/>
      <path class="st7" d="M241.6,1136.9c-8.8-7.2-14.7-17-18.8-27.4l-6.5-4.6c-3.6-2.6-1.6-9,2.1-10.9,8-4,14.5-9,21.2-14.6,10.7-9,24.7-9.2,35.3,0s12.6,10.5,20.4,14.5,4.5,5,3.8,8.2-4.2,5-7.5,6.2c-4.2,11.3-10.6,22.2-20.2,29.6-9.4,7.4-20.4,6.9-30-1h.2ZM238.8,1121.2c.8,1,2.2,2.9,3.3,3.8l6.7,5.4c10.3,4.3,21.1,0,27-9.1l8.8-11.6,6.3-2.6-17.3-4.4c-11.3-2.9-22.6-2.6-33.9.2l-16.5,4.1,6.4,2.6,9.3,11.6h0Z"/>
      <path class="st14" d="M226.3,1072.3l-1.7-1.4c1.9-7.6,1-15.6-3.6-21.6s-13-7.7-18.1-2.2c3.5.9,5.5,2.6,5.7,5.7s-1.6,5.5-3.8,6-5-1.2-6.7-4.7c-3.7,7.9-2.4,16.5,2.7,23.3s11.6,7.5,17.4,3.1l1.3,1.4c-9.9,9.5-26.1,8.5-34.2-3.2-8.4-12.1-7.7-29.2,1.3-40.5s10.4-8.7,16.5-9c6.6-.4,13,2.3,17.6,7.4,8.6,9.7,10.7,23.8,5.7,35.7h0Z"/>
      <path class="st14" d="M297,1084l1.5-1.9c5,2.2,11.3-.2,14.6-4.7,6.3-8.6,6.2-20.7-.3-28.7s-12.8-6.2-17.4-1.4c2.1.9,4.4,1.9,5.2,3s.8,4.6-.1,6.4-4.1,3-5.4,2.5-2.7-2.3-4.5-4.5c-1.9,4.2-2.8,10.3-1.5,15.6l-1.9.2c-3.3-10.4-2.4-21.9,4-31s11.9-10.5,19.5-10.2c7.5.3,14.2,4.1,18.5,10.9,7.5,11.9,7.4,27.8-.9,39.1s-21.5,11.8-31.2,4.6h-.1Z"/>
      <path class="st23" d="M352,1107.4c-11.5,7.3-26.2,2.3-28.2-5.7s-.1-7,2-9.6c6.9-8.7,20.3-9.8,28.2-2.1s4,13.6-2,17.4h0Z"/>
      <path class="st23" d="M187.7,1105.8c-7.6,7.4-20.5,6.6-27.9-.3-2.7-2.6-3.4-7-2.7-10.2s3.3-6.7,6.5-8.1c7.4-3.4,15.8-2.6,22.1,2.3,6.3,4.9,7.1,11.4,2,16.3Z"/>
      <path class="st2" d="M298.5,1082.1l-1.5,1.9c-4.9-3.6-8-7.7-9.9-13.5l1.9-.2c1.2,4.9,4.9,9.8,9.5,11.8Z"/>
      <path class="st2" d="M226.3,1072.3c-1.5,3.7-3.9,6.9-6.8,9.7l-1.3-1.4c2.7-2,5.6-6.4,6.4-9.6l1.7,1.4h0Z"/>
      <path class="st16" d="M275.7,1121.2c-10.2-10.9-26.6-10.8-36.9,0l-9.3-11.6-6.4-2.6,16.5-4.1c11.3-2.8,22.5-3.1,33.9-.2l17.3,4.4-6.3,2.6-8.8,11.6h0Z"/>
      <path class="st23" d="M275.7,1121.2c-5.9,9-16.7,13.4-27,9.1l-6.7-5.4c-1.1-.9-2.5-2.7-3.3-3.8,10.4-10.8,26.7-10.9,36.9,0h0Z"/>
      <path class="st27" d="M224.6,1071c-.8,3.2-3.7,7.6-6.4,9.6-5.8,4.4-13.4,2.3-17.4-3.1s-6.4-15.4-2.7-23.3c1.7,3.5,3.8,5.4,6.7,4.7s4-3.4,3.8-6-2.2-4.7-5.7-5.7c5-5.5,13.3-3.9,18.1,2.2s5.5,14,3.6,21.6h0Z"/>
      <path class="st27" d="M298.5,1082.1c-4.6-2-8.3-6.9-9.5-11.8s-.4-11.4,1.5-15.6c1.8,2.2,3.2,3.9,4.5,4.5s4.6-1.1,5.4-2.5,1.1-5.1.1-6.4-3.1-2.1-5.2-3c4.6-4.9,12.8-4.4,17.4,1.4s6.6,20.2.3,28.7-9.6,6.8-14.6,4.7h.1Z"/>
    </g>
  </g>
  <g id="Ciervo1">
    <g id="Ciervo2">
      <path class="st6" d="M1415.3,986.3l18.2-7.5c22.7-7.4,46.7-7,69.3,0l18.1,7.5,11.5,7.1c13.3-23.6,40.2-37.1,67.4-37.8,6.1,0,10.2,3.1,11.4,9.1,2.5,31.8-12.8,65.2-45.5,72.9,7.9,21.7,11.9,43.5,10.8,66-1.7,33.8-21.1,55.9-51.6,67.9,6-11.6,5.5-24.3-1-35.9-7.9-14.1-22.3-22.7-38-24.6.2-10.1-34.2-11.1-34.9,0-16,1.8-30.7,10.6-38.9,25-6.4,11.2-6.7,23.8-1.7,34.9-29.5-12-48.3-32.5-50.4-65.2-1.5-23.2,2.2-46,10.6-68.2-32.4-7.8-48-40.9-45.6-72.2,1.2-5.8,4.9-9.5,10.7-9.6,26.2-.5,55,13.7,68,37.9l11.5-7.3h0ZM1386.8,1009.8c-7.9-18.2-25.7-33.3-46.3-33.2-1.2,23.6,13.7,45.3,36.6,47.2l9.6-14h.1ZM1595.4,977.1c-20.2-.4-38.1,14.3-45.9,32.6l9.6,14.2c23.3-1.9,37.7-23.7,36.4-46.7h0ZM1451.3,982.1c-5.4-3.8-12.4-1.1-14.1,2.9s0,7,2.1,9.4,5.8,3.4,8.6,2.4c5.5-1.9,6.7-12.3,3.4-14.6h0ZM1496.1,982.5c-3.1-2.6-9.2-2.6-11.9.5s-1.7,11.2,3,13.3,7.7-.7,9.4-3.4,2.6-7.8-.5-10.4h0ZM1468.9,1011.5c6.2-.9,7.6-10.4,5.9-14.4s-3.6-5.4-6.6-5.4-5.6,1.7-6.7,5.2,1,15.5,7.3,14.6h0ZM1454.5,1023.2c3.9-4.7,2.7-10.1-1.3-14s-5.7-2.3-7.9-.7-2.2,4.1-2,6.4c1.3,5.6,5.5,9.2,11.2,8.3h0ZM1492.9,1012.4c-.6-3.1-3.2-5-5.6-4.9s-4.6,1.9-5.8,4c-2,3.5-2.8,9.5,1.5,11.1s11-4,9.8-10.2h0ZM1474.6,1032.3c-.2-2.5-1.8-5.1-3.2-5.9s-4.8-.9-6,0c-3.1,2.3-4.1,6.9-3.2,10.3s3.5,7,6.1,6.8c4.9-.9,6.8-6.3,6.3-11.2h0ZM1433.8,1108.1c9.9-12.3,8.6-30.1-1.4-41.8-4.9-5.7-11.6-8.4-18.9-7.6-6.1.6-12.5,4.3-16.7,10.3-7.2,10.6-7.8,25.1-1.5,36.3s11.1,11.3,18.2,11.8,15-2.3,20.4-9h0ZM1539.7,1107c8.4-12.3,7.3-28.9-1.9-39.9-7.1-8.5-18.5-11.5-28-5.1-15,10.1-18.2,31.7-7.2,45.9s11.5,9.3,18.8,9.3,13.8-3.4,18.4-10.1h-.1Z"/>
      <path class="st26" d="M1451,1111c-.4,7.5,6.5,14.2,14.8,15.8l-.2,9.1c-10.5,1.6-19.9-7.1-20.9-5.7l-1.8,2.7c.9,7.8,2.6,15.8,8.5,20.4,3,6.1,10.4,9,16.8,9,7.7.2,12.9-3.5,17.5-9,7.7-9.5,9.4-22.7,6.2-23-3.5-.3-10.2,6.3-21.2,6.3-.3-1.7-.5-3.1-.4-3.8l.7-5.8c8-1.8,14.8-8.5,15-15.9,15.7,1.9,30,10.5,38,24.6,6.5,11.6,7,24.3,1,35.9-34.9,13.8-79.5,13.7-114.4-.6-5-11.1-4.7-23.8,1.7-34.9,8.2-14.4,22.9-23.2,38.9-25h-.2Z"/>
      <path class="st5" d="M1520.8,986.3l-18.1-7.5c1.4-4.2,1.8-8.5.7-12.4l-3.6-13.7c-.8-3,1.6-7.4,3.7-8.7s7.4-2.1,9.6.5c3.3,3.8,4.3,8.8,5.4,13.8,13.2-15.1,6.4-32.2,8.2-41.7,1-5.2,5.5-8,9.6-8,12.5-.2,11.5,16,11.3,31.1,6.8-3.8,11.8-9.1,16.2-15s10-5.8,14.4-2.7c15.8,11.1-15.8,39.7-38.8,43.3-7.1,6.1-13.3,13-18.6,21h0Z"/>
      <path class="st5" d="M1433.5,978.9l-18.2,7.5-8.2-10.8-9.1-9.9c-20.2-3-52.1-26.5-41.8-41.6,1.8-2.6,5.8-4.2,9-3.9,8.3.9,11.5,13.8,23.6,19.7-.6-14.8-1.5-31.9,11.6-31.2s9.5,5.1,9.3,11.2l-.4,17c-.2,7.5,2.9,14.6,7.7,20.9l4.5-11.2c1.5-3.6,6.4-4.5,9.6-3.5s6,5,5.1,8.8l-2.9,12.6c-1.2,5-1.3,9.8.3,14.5h0Z"/>
      <path class="st14" d="M1433.8,1108.1c-5.4,6.7-12.6,9.6-20.4,9s-14.2-4.7-18.2-11.8c-6.2-11.2-5.7-25.7,1.5-36.3s10.5-9.7,16.7-10.3c7.4-.8,14.1,2,18.9,7.6,10,11.7,11.3,29.4,1.4,41.8h0ZM1413.4,1107.5c5.8,6,14.5,5.3,19.2-1.1s5.8-19.9-.4-27.9-12.6-6.9-17.6-2.2c2.9,1.3,5.2,3.1,5.5,5s-1,5.7-3.3,6.6-4.2.2-4.8-.7l-2.6-4.1c-3.3,8.4-2.4,17.8,4,24.3h0Z"/>
      <path class="st14" d="M1539.7,1107c-4.6,6.8-11.4,10.1-18.4,10.1s-14-3-18.8-9.3c-10.9-14.2-7.7-35.8,7.2-45.9s20.8-3.4,28,5.1c9.2,11,10.3,27.6,1.9,39.9h.1ZM1503.7,1106.5c2.3,3,6.5,5.1,9.6,5.2s7.4-1.8,9.8-4.6c6.9-7.9,7.4-19.6,1.6-28-4.5-6.4-12.7-7.7-18.5-2.4l4.9,2.3c1,.5,1.2,3.5,1.1,4.9s-3,4.5-4.9,4.4-3.8-1.8-5.8-4.2c-3,7.2-3,15.6,2.2,22.3h0Z"/>
      <path class="st8" d="M1595.4,977.1c1.3,23.1-13.1,44.8-36.4,46.7l-9.6-14.2c7.8-18.3,25.8-33,45.9-32.6h0Z"/>
      <path class="st8" d="M1386.8,1009.8l-9.6,14c-23-1.9-37.8-23.6-36.6-47.2,20.5,0,38.4,15.1,46.3,33.2h-.1Z"/>
      <path class="st27" d="M1485.9,1111.1c0,7.5-7,14.2-15,15.9l-.7,5.8h-1.6c-.6,0-.4,2.8-2.9,3.2l.2-9.1c-8.3-1.6-15.2-8.3-14.8-15.8.7-11.1,35.1-10.1,34.9,0h0Z"/>
      <path class="st9" d="M1468.9,1011.5c-6.3.9-8.8-10.1-7.3-14.6s3.8-5.2,6.7-5.2,5.2,1.9,6.6,5.4.3,13.6-5.9,14.4h0Z"/>
      <path class="st9" d="M1451.3,982.1c3.4,2.4,2.2,12.7-3.4,14.6s-6.6-.2-8.6-2.4-3.3-6.5-2.1-9.4,8.7-6.7,14.1-2.9h0Z"/>
      <path class="st9" d="M1496.1,982.5c3.1,2.6,2.6,7.3.5,10.4s-5.5,5.1-9.4,3.4-6.4-9.2-3-13.3,8.8-3.1,11.9-.5h0Z"/>
      <path class="st9" d="M1474.6,1032.3c.5,4.9-1.4,10.2-6.3,11.2-2.6.2-5.5-4.4-6.1-6.8-.9-3.4,0-8,3.2-10.3s4.7-.7,6,0,2.9,3.3,3.2,5.9h0Z"/>
      <path class="st8" d="M1454.5,1023.2c-5.8.8-10-2.8-11.2-8.3-.2-2.3.6-5.3,2-6.4,2.2-1.6,6.2-1,7.9.7,4.1,3.9,5.2,9.3,1.3,14h0Z"/>
      <path class="st9" d="M1492.9,1012.4c1.2,6.1-4.3,12.2-9.8,10.2s-3.6-7.6-1.5-11.1,3.8-3.9,5.8-4,5,1.8,5.6,4.9h0Z"/>
      <path class="st4" d="M1465.6,1136c2.5-.4,2.3-3.3,2.9-3.3h1.6c0,.9.2,2.3.4,3.9,11,0,17.7-6.6,21.2-6.3,3.2.3,1.5,13.5-6.2,23-7.5-10.8-27.6-11-34.2,0-5.9-4.6-7.6-12.6-8.5-20.4l1.8-2.7c1-1.5,10.4,7.3,20.9,5.7h0Z"/>
      <path class="st23" d="M1485.6,1153.3c-4.5,5.6-9.8,9.2-17.5,9-6.4,0-13.8-2.9-16.8-9,6.7-11.1,26.8-10.8,34.2,0h.1Z"/>
      <path class="st27" d="M1413.4,1107.5c-6.4-6.6-7.3-16-4-24.3l2.6,4.1c.5.9,3.8,1.1,4.8.7,2.3-1,3.7-4.1,3.3-6.6s-2.6-3.7-5.5-5c5.1-4.7,13.1-3.7,17.6,2.2s6.4,19.6.4,27.9-13.4,7.1-19.2,1.1h0Z"/>
      <path class="st27" d="M1503.7,1106.5c-5.2-6.6-5.2-15.1-2.2-22.3,1.9,2.4,3.8,4.2,5.8,4.2s4.7-2.5,4.9-4.4,0-4.5-1.1-4.9l-4.9-2.3c5.8-5.2,14-4,18.5,2.4,5.8,8.4,5.3,20.1-1.6,28s-6.4,4.6-9.8,4.6-7.3-2.2-9.6-5.2h0Z"/>
    </g>
  </g>
  <g id="Erizo">
    <g id="Erizo1">
      <path class="st1" d="M725.9,1172.4l-10.2,1.7c-29.9,6.2-61,5.7-90-2.6-13.9-4-26.8-11-37.9-21-30.3-27.3-25.2-70.8-8.1-105.3-9-8.3-12.8-20.1-9.3-31.4s10.3-16,19-18,18.9,1.3,25.5,8.6c1.6,2.5,4,2.7,6.6,1.6,19.3-7.8,39.3-3.7,54.5,10.5,16-15.7,38-18.3,57.5-9.2,5.4-6.7,12.2-11.4,20.6-12.1,13.1-1,24.3,8.2,26.8,21,2.1,10.8-1.6,21-10.1,28.7,18.6,37,21.9,82.5-12.5,109.6s-19.5,12.6-31,16.1-1.3.4-1.4.7v1.1ZM606.1,1014.6c-5.7-4.4-12.2-4.9-17.8-2-6.1,5.5-6.8,14.7-1.7,21.6,5.5-7.8,11.7-13.6,19.5-19.6ZM764,1033.3c4-4.7,5.2-13.4.6-18.7s-14.8-4.5-18.9.6l18.2,18.1h.1ZM640.4,1100.2c9.3-12.2,8.8-28.4-.1-40-4.5-5.8-10.5-8.8-17.3-8.6s-11.9,3.1-16.4,8.5c-12.5,15.1-8.8,41.1,8.3,47.2s15.7,2.4,21.3-3l4.3-4.2h0ZM710.9,1098.5l.8,1.1,1.1,1.1.7,1.1c3.2,5.6,10.5,7.4,17.4,6.9s12-4.1,15.7-10.1c7.5-12,6.3-28.2-2.7-39s-10.4-8-16.8-7.9c-13.1,0-21.4,12.6-23.2,26.2s2.4,19.4,7.1,20.6h0ZM672.9,1115c1,4.7-1.7,9.1-6.2,10.8s-10.3-1.2-12.2-5.9-2.6-2.3-3.6-2.2-1.8,3-1.5,4c1.9,5.3,6.8,8.4,11.2,9.5s10.7-1.4,14.7-4.5c4.3,3,9.3,6.1,15.1,4.5,8.7-2.4,13.2-11.8,9.5-13.3s-5.6,10.7-14.7,8.1c-5.1-1.4-8.3-5.7-6.6-11,5.3-1.8,9.5-5.4,11.8-10.2,1.9-4,0-8-4-9.6-6.8-2.8-14.5-2.6-21.4,0s-5.6,4.8-4.3,8.7c2,5.8,6.9,9.6,12.4,11.2h-.2Z"/>
      <path class="st17" d="M725.9,1172.4v-.9c0-.3,1-.6,1.4-.7,11.5-3.5,21.6-8.7,31-16.1,34.4-27,31.1-72.6,12.5-109.6,8.5-7.7,12.2-17.9,10.1-28.7-2.5-12.8-13.7-22-26.8-21s-15.2,5.4-20.6,12.1c-19.5-9.2-41.5-6.6-57.5,9.2-15.2-14.3-35.2-18.3-54.5-10.5-2.6,1.1-5,.9-6.6-1.6-6.6-7.3-16.1-10.8-25.5-8.6s-16.1,8.7-19,18,.2,23,9.3,31.4c-17,34.5-22.1,78,8.1,105.3,11,9.9,23.9,17,37.9,21-15.5-.3-31.3-2.3-45.5-9.4s-5.4-2-8.4-.3c-6.4,3.7-13,1.1-16.1-5.4s-3-12.7-2.8-20c-4,1-8.9,2-12.2.2-9.5-5.3-5.4-24.6,0-36.7-3.9-.2-8-.6-10.3-2.5-8.5-7.1,2.1-28.5,10.8-39.1-4.6-2-8.4-3.9-9.6-6.3-5.1-9.9,9.2-26.8,20-34.6-3.6-2.6-6.9-6.2-7.3-9.1-1.6-11.3,15.3-22,28.3-25.2l-3.7-8.5c-2.4-5.6,1.6-10.4,6.6-12.7,8.4-3.8,17.6-3.4,27.2-2.2-.5-5.3-.8-10,.2-14.1,2.7-11,21.6-6.5,33.5,1.1,1.5-5.5,2.8-10.2,5.4-14.3,6.1-9.8,21.9-.2,30.5,10.3,7.3-11.1,22.4-20.6,28.4-13,3.6,4.6,5.2,10,6.4,15.6,11.3-8.6,30.8-13.6,34.2-3s1,9,.7,14.4c9.7-2.5,18.9-3.3,27.7,0,5.4,2,9.5,7.2,7.4,13.1l-3.2,9.3c12.9,3.2,27.3,10,30,22.1,1.1,5.2-3.4,9.4-6.8,12.4,10.8,9.2,25.5,24.3,21.9,36.2s-6.1,6.4-10.2,7.9c10,11.3,19.1,33.5,10.6,39.9-2.4,1.8-6.5,2.2-10.3,2.4,5.9,12.6,9.1,33.4-.3,37.5s-7.9.5-11.9,0c.5,8.8.3,17-4.8,23.3s-11.8,3.9-17.2.2c-15.3,7.5-32.3,10.8-49.1,11.7v-.4Z"/>
      <path class="st14" d="M640.4,1100.2l-4.3,4.2c-5.5,5.4-13.7,5.7-21.3,3-17.1-6.1-20.8-32.1-8.3-47.2,4.5-5.4,10.1-8.3,16.4-8.5s12.8,2.7,17.3,8.6c8.9,11.6,9.4,27.9.1,40h0ZM619.4,1098.4c3,3.8,7.2,5.8,11.4,5.3s7.7-2.8,10-6.7c4.5-8,4.2-18-.8-25.6s-12.2-7.6-18-2.8l4.5,2.7c1,.6,1.1,3.7.8,5.2s-3.3,4.2-5.1,4-3.7-2.3-5.3-5c-3.1,7-2.8,16,2.5,22.8h0Z"/>
      <path class="st14" d="M713.5,1101.8c5.1,2.6,11.7,2.8,16.2-2,7.3-7.8,8-20.1,1.6-28.7-2.1-2.8-5.7-5-8.4-5.2s-7.1,1.3-9.5,3.5c3.7.7,5.8,2.1,6.2,5s-1.8,6.2-5.1,6.3-4.2-2.8-5.3-4.9c-3.6,7.2-2.8,16.5,1.8,22.7-4.7-1.2-7.9-13.8-7.1-20.6,1.7-13.6,10.1-26.2,23.2-26.2s12.4,2.6,16.8,7.9c9,10.9,10.2,27.1,2.7,39s-9.8,9.6-15.7,10.1-14.2-1.3-17.4-6.9h0Z"/>
      <path class="st27" d="M713.5,1101.8l-.7-1.1-1.1-1.1-.8-1.1c-4.6-6.3-5.3-15.5-1.8-22.7,1.1,2.1,3.5,4.9,5.3,4.9,3.4,0,5.5-3.7,5.1-6.3s-2.6-4.3-6.2-5c2.4-2.1,6-3.8,9.5-3.5s6.4,2.5,8.4,5.2c6.4,8.6,5.6,20.9-1.6,28.7s-11.1,4.6-16.2,2h0Z"/>
      <path class="st5" d="M678.5,1114.9c-1.6.5-4.3.5-5.6,0-5.5-1.6-10.4-5.4-12.4-11.2s.7-7.3,4.3-8.7c6.9-2.7,14.6-2.8,21.4,0,4,1.6,6,5.6,4,9.6-2.3,4.8-6.4,8.5-11.8,10.2h0Z"/>
      <path class="st4" d="M678.5,1114.9c-1.7,5.3,1.5,9.6,6.6,11,9.1,2.6,10.8-9.7,14.7-8.1s-.8,11-9.5,13.3-10.8-1.4-15.1-4.5c-4,3.1-8.9,6-14.7,4.5s-9.3-4.1-11.2-9.5.4-3.9,1.5-4,3.2,1.1,3.6,2.2c1.9,4.7,7.5,7.8,12.2,5.9s7.2-6.1,6.2-10.8c1.3.4,4,.5,5.6,0h.1Z"/>
      <path class="st26" d="M606.1,1014.6c-7.8,6-14,11.8-19.5,19.6-5.1-6.9-4.3-16.1,1.7-21.6,5.5-2.9,12.1-2.4,17.8,2Z"/>
      <path class="st26" d="M764,1033.3l-18.2-18.1c4-5.1,14-6.3,18.9-.6s3.4,14-.6,18.7h-.1Z"/>
      <path class="st14" d="M712.7,1100.7l-1.1-1.1,1.1,1.1Z"/>
      <path class="st27" d="M619.4,1098.4c-5.3-6.8-5.6-15.8-2.5-22.8,1.6,2.6,3.3,4.7,5.3,5s4.7-2,5.1-4,.2-4.6-.8-5.2l-4.5-2.7c5.8-4.9,13.9-3.5,18,2.8,4.1,6.3,5.3,17.6.8,25.6s-6.1,6.3-10,6.7-8.4-1.5-11.4-5.3h0Z"/>
    </g>
  </g>
  <g id="Gato">
    <g id="Gato1">
      <path class="st15" d="M1429.8,577.6c.5,11.5,6.8,33.8,13.4,31.9,1.2-.4,3.4-2.7,3.5-4.2l2-32.1,8.1-.8c.7,14.2,3.2,48.8,12.9,44.7,7.7-3.3,9.9-31.4,10.5-44.6l8.6,1.1,1.4,31.9c0,1.7,2.8,4.4,4.3,4.4,6.8.2,11.4-21.2,12.7-32.2l6.3,1.9c16.2-16.8,35.9-29.3,58.2-35s11.3-1.2,16.2,2.2c3.1,4.5,5.7,9.5,6.7,15.3,5.6,29.7,1.7,59.6-9.8,87.4,7.9,19.2,12.5,38.6,13.6,58.6l-30.4,7.6-.9,3.4c-.2.9,2.1,1,3.1.8l27.3-6.5-1.2,16.6-26.4-1.5c-1,0-2.9,2-2.7,2.8s1.8,1.8,2.9,1.9l23.7,1.6-6.1,14.7-19-7.6c-.8-.3-3.7.7-3.5,1.5s1.2,2.4,2,2.7l16.8,6.9c-.3,2-1.5,4-2.6,5.4-14.4,16.5-32.2,27.9-53.4,34.7-42.9,13.9-89.9,12.2-131.7-4.7-16.2-6.5-29.8-16.2-41-29.1l-4-5.9,17.7-7.5c.8-.3,2.1-1.7,2.3-2.5s-2.2-2.4-3.2-2l-19.7,7.9-4.4-9-1.7-5.9,24-1.4c.8,0,2.3-1.2,2.6-1.9s-2-2.9-3.1-2.8l-25.6,1.5-2.5-16.8,27.9,6.5c.9.2,3.5,0,3.6-.6s-.5-2.2-1.2-3.5l-29.9-7.5c.4-20.7,5.5-40.7,14.1-59.9-10.9-28.2-16-70.2-4.8-96.6s8.1-9,14.4-8.2c20.9,2.6,45.8,17.7,60.3,33.2,2.2,2.3,4.8,2.2,7.5,1.3h.2ZM1403.7,589.8c-8.9-9.5-17.8-15.8-28.3-20.6-4-1.4-7.5-1.9-11.8-1.1-7.2,17.5-4.3,40.1,2.2,58.2,10.5-15.2,22.8-26.7,37.9-36.5h0ZM1571.9,626.9c7.6-17.5,8.9-35.3,5.8-52.9-.8-2-2.1-4.5-3.4-5.2-7.4-4-31,11.4-39.7,21.8,15.2,9.4,27.1,21.5,37.3,36.3h0ZM1435.2,710c7.5-14.1,4-32.9-9.1-42.3-11.2-8.1-25.8-3.3-32.9,8.3s-6.7,24.4-1,35.3c4.6,8.8,12.9,13.3,22.2,12.7s16-5,20.8-14ZM1505.2,714.3l.8.9,1.1,3.1c10.8,9,25.4,7.6,34.3-3.6,8.6-12.9,8.2-31.3-2.2-43.1-8.7-9.9-22.5-10.3-32-1.6-11.7,11.2-13.4,29.3-5.1,43.1l1.7,1.4c.3.3,1.2.5,1.3-.3h0ZM1465.7,729.7c0,1.6-.5,5.4-1.5,6.9-2.4,3.7-6.8,5.2-10.6,5-8.8-.5-9.5-8.1-12.2-8.9s-2.8,1.7-3,3c-.5,4.3,5.9,7,7.2,9.8,2.2,4.8,3.7,9.3,6.4,13,3.7,5.1,8.9,9,15.5,8.9,6.5,0,13.4-3.2,15.9-9.3,3.3-3.1,4.8-8,6.1-12.7,7.3-4.3,9.7-11.2,6.2-12.3s-3.4.7-4.1,2.3c-2.9,6.9-13.2,8.4-18.6,3.6s-3.1-6.1-2.8-9.4c5.4-.2,10.4-5.9,12.5-11,3.4-8.3-12.9-13.7-26.1-8s-4.7,5.3-3.2,8.8c2.1,4.9,7.2,8.8,12.1,10.4h.2Z"/>
      <path class="st11" d="M1480.2,572.3c-.7,13.2-2.8,41.3-10.5,44.6-9.7,4.1-12.2-30.5-12.9-44.7,7.7-.8,15.7-.9,23.4,0h0Z"/>
      <path class="st11" d="M1448.7,573.1l-2,32.1c0,1.5-2.3,3.9-3.5,4.2-6.6,2-12.9-20.4-13.4-31.9,6-2.1,12.5-3.9,18.9-4.5h0Z"/>
      <path class="st11" d="M1507.3,577.5c-1.3,11-5.9,32.4-12.7,32.2s-4.2-2.7-4.3-4.4l-1.4-31.9,18.4,4.2h0Z"/>
      <path class="st28" d="M1338.4,707.8l29.9,7.5c.7,1.3,1.3,2.6,1.2,3.5s-2.7.8-3.6.6l-27.9-6.5-5.6-1c-.8,0-2.2-1.2-2.7-1.8s1-3,1.7-2.9l7,.7h0Z"/>
      <path class="st28" d="M1596.4,729.8l7.4,1c1,0,3,2.7,2.2,3.2l-2.7,1.5-9.4-.8-23.7-1.6c-1.1,0-2.8-1.1-2.9-1.9s1.7-2.8,2.7-2.8l26.4,1.5h0Z"/>
      <path class="st28" d="M1597.6,713.2l-27.3,6.5c-1,.2-3.3,0-3.1-.8l.9-3.4,30.4-7.6,5.5-.4c1,0,2.8,1.4,2.6,2.2s-1.5,2-2.2,2.2l-6.9,1.2h0Z"/>
      <path class="st28" d="M1342.6,734.3l-9.7.9c-.8,0-2.4-.5-2.9-1.1s.6-3.1,1.3-3.2l9.2-1.2,25.6-1.5c1,0,3.4,1.9,3.1,2.8s-1.8,1.9-2.6,1.9l-24,1.4h0Z"/>
      <path class="st28" d="M1351.6,753.2l-9.8,4.2c-1.1.5-2.7.7-3.3,0s0-3.4.7-3.8l9.5-4.5,19.7-7.9c1-.4,3.5,1.1,3.2,2s-1.5,2.1-2.3,2.5l-17.7,7.5h0Z"/>
      <path class="st28" d="M1587.9,749.3l9.2,4.2c.9.4,2,2.6,1.4,3.3s-2.9,1-3.6.6l-10.6-4.5-16.8-6.9c-.8-.3-1.8-1.9-2-2.7s2.7-1.9,3.5-1.5l19,7.6h0Z"/>
      <path class="st14" d="M1435.2,710c-4.8,9-12.1,13.5-20.8,14s-17.6-3.8-22.2-12.7c-5.7-11-5.4-24.8,1-35.3s21.6-16.4,32.9-8.3c13.1,9.4,16.7,28.2,9.1,42.3ZM1411,714c6,6.4,15.5,5.7,20.3-1.3s5.4-19.2.2-27.5c-4.5-7.2-13.7-8.6-19.8-2.9,3.8,1,6.2,2.8,6.4,5.7s-1.6,6.3-5.3,6.4-4.4-3-5.7-5.2c-3.5,8.3-2.4,18,3.9,24.7h0Z"/>
      <path class="st14" d="M1506,715.2c5.9,4.8,14.3,4.2,19.4-2.4s6.5-18.6,1.4-27.1-5.7-5.9-8.9-6.6-8.7.9-11.1,3.5c2.4.8,4.4,1.4,5.4,2.2s1.3,4.1,1,5.6c-.5,2.4-3.5,4.5-5.7,4.1s-3.6-2.7-5.1-5.2c-3.7,8-2.6,17.5,2.7,24.9,0,.8-1,.6-1.3.3l-1.7-1.4c-8.3-13.9-6.7-31.9,5.1-43.1,9.5-8.7,23.3-8.4,32,1.6,10.4,11.8,10.7,30.2,2.2,43.1-8.9,11.2-23.6,12.6-34.3,3.6l-1.1-3.1h0Z"/>
      <path class="st3" d="M1571.9,626.9c-10.3-14.8-22.1-27-37.3-36.3,8.7-10.4,32.4-25.8,39.7-21.8s2.6,3.3,3.4,5.2c3.1,17.6,1.7,35.4-5.8,52.9h0Z"/>
      <path class="st3" d="M1403.7,589.8c-15.1,9.8-27.4,21.3-37.9,36.5-6.5-18.1-9.4-40.7-2.2-58.2,4.3-.8,7.8-.3,11.8,1.1,10.4,4.8,19.4,11,28.3,20.6h0Z"/>
      <path class="st27" d="M1506,715.2l-.8-.9c-5.3-7.4-6.4-16.9-2.7-24.9,1.6,2.6,3.4,4.9,5.1,5.2s5.1-1.7,5.7-4.1,0-4.8-1-5.6-3-1.4-5.4-2.2c2.5-2.6,7.1-4.3,11.1-3.5s6.9,3.3,8.9,6.6c5.1,8.5,4.5,19.4-1.4,27.1s-13.5,7.2-19.4,2.4h0Z"/>
      <path class="st4" d="M1470.4,729.5c-.3,3.3.5,7.4,2.8,9.4,5.4,4.7,15.6,3.2,18.6-3.6s2.6-2.8,4.1-2.3c3.5,1.1,1,8-6.2,12.3-1.4,4.8-2.9,9.6-6.1,12.7-8.2-9.6-23.5-9.8-31.5.3-2.7-3.7-4.2-8.2-6.4-13s-7.7-5.5-7.2-9.8,1.9-3.2,3-3c2.7.8,3.3,8.4,12.2,8.9s8.2-1.3,10.6-5,1.4-5.3,1.5-6.9l4.7-.2v.2Z"/>
      <path class="st28" d="M1470.4,729.5l-4.7.2c-4.9-1.6-10-5.5-12.1-10.4-1.5-3.5,0-7.5,3.2-8.8,13.3-5.6,29.5-.2,26.1,8s-7.1,10.8-12.5,11Z"/>
      <path class="st23" d="M1483.5,758.1c-2.5,6-9.5,9.3-15.9,9.3s-11.9-3.8-15.5-8.9c8-10.2,23.3-9.9,31.5-.3h0Z"/>
      <path class="st27" d="M1411,714c-6.2-6.7-7.3-16.4-3.9-24.7,1.3,2.2,3.6,5.3,5.7,5.2,3.7,0,5.4-3.6,5.3-6.4s-2.6-4.8-6.4-5.7c6.1-5.7,15.3-4.3,19.8,2.9,5.2,8.3,5.5,19.4-.2,27.5s-14.3,7.7-20.3,1.3h0Z"/>
    </g>
  </g>
  <g id="Pingu">
    <g id="Pingu1">
      <path class="st25" d="M754.9,792.8c26.8-31.3,28.1-80.7,16.7-119.3-3.1-10.6-8.1-19.8-15.4-27.7-18.4-20.2-47.8-17-65.7,3-6.3,7-10.3,15.1-15,23.8-5.5-13.1-12.4-23.5-22.7-31.3-18.2-13.9-42.5-12-57.8,5.2-8,9-13,19.8-16.2,31.7-10.4,38.1-8.7,83.4,16.4,114.1-16.3-4.2-42-12.8-50-25.5s-5.2-15.8-4.9-24.3c1.3-32.3,6.9-64.1,17.2-94.7,14.3-42.3,46-75,91.2-83l-6.4-9.5c-1.3-1.9,0-6.8,1.6-8.4,6-5.7,18.4.6,25.1,9.1-.3-11.1,1.7-25.9,9.1-27,10.9-1.7,19.3,19.6,18,34.7,51.1,6.3,85.3,41.2,99.9,89.1,9.2,30.2,13.9,61,14.5,92.6.3,15.7-4.4,25.8-18,33.2-12,6.5-24.2,10.7-37.6,14v.2Z"/>
      <path class="st18" d="M754.9,792.8c-52.4,13.1-107.4,13.1-159.7-.5-25.1-30.7-26.8-76-16.4-114.1,3.2-11.9,8.2-22.8,16.2-31.7,15.3-17.2,39.6-19,57.8-5.2,10.3,7.8,17.2,18.3,22.7,31.3,4.7-8.7,8.7-16.8,15-23.8,17.9-20,47.3-23.2,65.7-3,7.3,8,12.2,17.1,15.4,27.7,11.4,38.5,10.1,88-16.7,119.3h0ZM603.2,714.8c-8.5,0-16.5,4.5-16.8,11.4s1.8,6.7,4.7,8.7c5.9,4.1,13.6,4.5,20.3,1.9s6.5-5,6.8-8.7-1.8-8-5.4-10.3l-.3-1.6,18.9,1.8-.5-5.5c7.7-.5,12.2-7.1,13.4-14.3l1.5-.5c1.9-.5,6-19.9-7.7-32.5s-21.5-6.9-29.6,1.8c-12.3,13.1-12.3,33.3.7,46.3l-5.9,1.7v-.2ZM707.3,701.7c1.1,3.2,4.2,7.7,6.9,9.1l-10.2,4.4-19-12.2c-5-3.2-12.3-4-17.3-.9l-20.7,12.9c-1.1.7-2.4,3.2-2.3,4.3s1.4,3.1,2.4,4.4c6.4,8.5,13.6,15.5,23.8,19.3s22.7-6.5,26.9-11.8c11.1,1.2,7.7-13.4,19.5-18.8h2.7c0,0,1.3,3.6,1.3,3.6.9,2.3,15.7,2.7,22.1-5.3,9.4-11.7,10.1-28.5,1.8-41-6.7-10.1-20.5-13.7-30.3-6.5s-12.1,16.2-12.4,26.1c3.9,4.4-.4,10.5,4.8,12.4ZM758.1,736.1c4.4-2.2,6.5-5.9,6.4-10s-2.6-7.4-6.5-9.2c-7.4-3.4-16.1-2.5-22.3,3.1s-3.5,6.4-2.7,9.4c2.3,9.1,16.2,11.3,25.2,6.7h-.1Z"/>
      <path class="st20" d="M704,715.2c1.2.8,2.6,4.8,1.7,6l-7.9,10c-4.2,5.3-18.3,14.9-26.9,11.8s-17.4-10.8-23.8-19.3c-1-1.4-2.3-3.2-2.4-4.4s1.3-3.6,2.3-4.3l20.7-12.9c5-3.1,12.3-2.3,17.3.9l19,12.2h0ZM665.7,726.3c-4.7-1.6-9.6-3.2-15-2.7,18,11.7,31.9,10.5,50.4,0-12.2-1.2-19.4,8-35.4,2.7Z"/>
      <path class="st14" d="M644.2,698c1.2-7.3-.2-14.7-5.2-20.1-4.7-5-12.3-5.6-17.2-.2,3.3.5,5.7,1.9,6.2,4.6s-1.4,5.6-3.4,6.2-5.3-1.1-7-4.2c-3.8,7.2-2.8,16.6,2.8,23.1,2.5,2.9,6.6,5.1,10.4,4.8l.5,5.5-18.9-1.8.3,1.6c-2.6-1.7-6.6-2.9-9.5-2.9l5.9-1.7c-12.9-13-13-33.2-.7-46.3,8.2-8.7,20.8-10,29.6-1.8,13.7,12.6,9.5,32,7.7,32.5l-1.5.5v.2Z"/>
      <path class="st14" d="M720,712.3c5-.3,9.6-3.4,12.1-7.9,4-7.6,3.9-17.3-1-24.3s-13.2-7.8-19.2-2.2c2.3.7,4.6,1.3,5.7,2.2s1.1,4.5.4,6.2-3.7,3.2-5.1,2.8-3-2.3-5-4.9c-2,5.9-2.4,11.9-.6,17.6-5.2-1.8-.8-7.9-4.8-12.4.4-9.9,4.2-20,12.4-26.1s23.6-3.6,30.3,6.5c8.3,12.4,7.6,29.3-1.8,41-6.4,8-21.3,7.5-22.1,5.3l-1.3-3.7h0Z"/>
      <path class="st27" d="M644.2,698c-1.2,7.1-5.7,13.8-13.4,14.3s-8-1.9-10.4-4.8c-5.6-6.5-6.5-15.9-2.8-23.1,1.7,3.1,4.2,5,7,4.2s3.8-4,3.4-6.2-2.9-4.1-6.2-4.6c4.9-5.4,12.5-4.8,17.2.2,5,5.4,6.4,12.8,5.2,20.1h0Z"/>
      <path class="st27" d="M720,712.3h-2.7c0,0-3.1-1.5-3.1-1.5-2.7-1.4-5.8-5.9-6.9-9.1-1.9-5.7-1.5-11.7.6-17.6,2,2.6,3.5,4.4,5,4.9s4.5-1.4,5.1-2.8.7-5.3-.4-6.2-3.4-1.5-5.7-2.2c6-5.5,14.6-4.4,19.2,2.2s5,16.7,1,24.3-7.1,7.7-12.1,7.9h0Z"/>
      <path class="st3" d="M758.1,736.1c-9,4.5-22.9,2.4-25.2-6.7s.3-7.2,2.7-9.4c6.2-5.6,15-6.5,22.3-3.1,3.9,1.8,6.4,5.4,6.5,9.2s-2,7.8-6.4,10h.1Z"/>
      <path class="st3" d="M603.2,714.8c2.9,0,6.9,1.2,9.5,2.9s5.7,6.5,5.4,10.3-2.9,7.2-6.8,8.7c-6.7,2.6-14.3,2.2-20.3-1.9s-4.8-5.5-4.7-8.7c.3-6.9,8.3-11.3,16.8-11.4h.1Z"/>
      <path class="st14" d="M717.3,712.4c-11.7,5.4-8.4,20-19.5,18.8l7.9-10c.9-1.2-.5-5.2-1.7-6l10.2-4.4,3.1,1.6h0Z"/>
      <path class="st10" d="M665.7,726.3c16,5.2,23.2-4,35.4-2.7-18.5,10.5-32.4,11.7-50.4,0,5.4-.4,10.3,1.2,15,2.7Z"/>
    </g>
  </g>
  <g id="Panda1">
    <path class="st18" d="M308.3,572.2c30.1,10.8,53.2,33.8,66.6,63.3l2.4,6.5c7.3,19.5,11.1,39.5,11.9,60.5,1.1,30.9-14,58.1-39.8,74.8-51.2,33.2-135.2,32.9-186.8-.6-25.8-16.8-40.4-44.4-39.1-75.3.9-23.2,5.7-45.3,14.8-65.7,13-27.9,34.7-50.9,64.1-62.5l2.7-2.1,10.7-2.6c30.5-8.6,63-6.9,92.4,3.6h.1ZM178.2,737.6c14.3,2.1,27.6-2.3,38.1-11.7,16.9-15,24.3-39.1,18.2-60.9-5.4-19.2-24.4-29.1-43.1-23.9-24.8,7-42.7,35-42.7,61.3s11.4,32.4,29.5,35.2h0ZM326.4,738.2c20.4,1.2,37.1-13.4,38-33.9,1.2-28.3-19.3-60.4-48-64.2s-31.4,7.3-36.8,23.3c-11.3,33.2,11.3,72.7,46.8,74.8h0ZM236.4,759.8c4.6,6.9,10.8,11.4,19,11.7s15.7-4,20.9-11.3c9.4-13.1,9.6-30.4,3.1-26.7s-13,5.8-20.8,6.1l-.4-9.4c7.2-2.3,12.9-6.7,15.4-13.7,4.6-12.8-30.4-14.4-34.5-4.6s5.5,15.7,14.8,17.9v9.4c-12.1.9-19.6-7.1-23.1-6.2s-1.2,16.5,5.6,26.8Z"/>
    <path class="st4" d="M374.9,635.5c-13.5-29.4-36.5-52.5-66.6-63.3,8-14.1,23.9-22.8,41.5-21,21.2,2.2,38.9,18.4,42.6,39.4,3.7,21-3.2,34.3-17.5,44.9Z"/>
    <path class="st4" d="M205.2,571.2l-2.7,2.1c-29.4,11.6-51.1,34.6-64.1,62.5-3.4-3.8-7.4-6.8-10.1-10.9-10.3-15.4-10-36.1,0-51.7s26.8-23.8,45.3-22.1c13.2,1.2,24.2,8.8,31.5,20h0Z"/>
    <path class="st4" d="M178.2,737.6c-18.1-2.7-29.6-17.3-29.5-35.2,0-26.3,18-54.4,42.7-61.3,18.8-5.3,37.7,4.7,43.1,23.9,6.2,21.8-1.3,45.9-18.2,60.9s-23.9,13.8-38.1,11.7h0ZM217.1,712.1l2.5-4.5,2.9-5.2.8,5.5,1.9-6c3.6-11.3,2.8-23.8-5.2-33.6s-9.8-8.3-15.9-8.4-12.7,2.7-17.3,8c-9.6,11-10.8,27.9-2.8,40.3s23.5,13.4,33.1,3.9h0Z"/>
    <path class="st4" d="M326.4,738.2c-35.5-2.1-58.1-41.6-46.8-74.8,5.4-15.9,20.4-25.4,36.8-23.3,28.7,3.8,49.2,35.9,48,64.2-.9,20.5-17.6,35.1-38,33.9h0ZM287.5,699.2c1.7,6.1,4.9,10.6,9.8,14.3,10.4,8,25.2,5.6,32.2-6.4,6.5-11.1,5.9-26.1-1.4-36.7-4-5.9-10-9.8-16.2-10.3s-13.4,2.5-18,7.8c-7.5,8.6-9.4,20.6-6.4,31.4h0Z"/>
    <path class="st4" d="M276.3,760.1c-.7-1.7-2.2-3.6-3.4-4.5-11.7-8.9-27-6.8-36.6,4.2-6.8-10.3-9-25.8-5.6-26.8s11,7.1,23,6.2v-9.4c-9.2-2.2-17.2-11.9-14.7-17.9,4.1-9.8,39.1-8.1,34.5,4.6s-8.2,11.5-15.4,13.7l.4,9.4c7.8-.3,14.6-2.6,20.8-6.1s6.3,13.6-3.1,26.7h.1Z"/>
    <path class="st23" d="M276.3,760.1c-5.3,7.4-12.1,11.6-20.9,11.3s-14.4-4.7-19-11.7c9.6-11,24.9-13.1,36.6-4.2s2.7,2.8,3.4,4.5h-.1Z"/>
    <path class="st18" d="M225.3,702l-2.3-.2c2.2-7.8,1.3-15.5-3.3-22s-13.2-7-18.2-1.8c2.4.9,4.7,1.9,5.5,3s.6,3.6.2,5.1-3.8,3.9-5.6,3.3-3.1-2.7-4.3-5c-3.5,6.5-3,14.9,1.2,21.5s8.3,7.6,14.2,6.5l4.5-.3c-9.6,9.5-25.5,7.8-33.1-3.9s-6.8-29.3,2.8-40.3,10.8-8.1,17.3-8,11.8,3.4,15.9,8.4c8,9.8,8.8,22.3,5.2,33.6h0Z"/>
    <path class="st27" d="M225.3,702l-1.9,6-.8-5.5-2.9,5.2-2.5,4.5-4.5.3c-5.9,1.1-11-1.5-14.2-6.5s-4.7-15-1.2-21.5c1.3,2.3,2.9,4.5,4.3,5s5.1-1.4,5.6-3.3.4-4.1-.2-5.1-3.1-2.1-5.5-3c5-5.2,13.8-4.3,18.2,1.8s5.5,14.2,3.3,22l2.3.2h0Z"/>
    <path class="st18" d="M297.3,713.6l1.3-1.6c6,2.7,12.8-1.1,16-6.6,4.9-8.4,4.4-19.3-2-26.4s-12.5-5.7-17-.7c3.9.4,6.1,2.5,6.1,5.7s-3.7,7.7-6.7,5.1l-4.4-3.8c-1.3,4.5-2.3,9.4-1.4,13.8h-1.8c-3-10.7-1-22.6,6.4-31.3s11.1-8.4,18-7.8,12.2,4.5,16.2,10.3c7.2,10.6,7.9,25.6,1.4,36.7-7.1,12-21.8,14.4-32.2,6.4v.2Z"/>
    <path class="st13" d="M298.7,712l-1.3,1.6c-4.9-3.8-8.2-8.3-9.8-14.3h1.8c1,5.1,4.6,10.6,9.3,12.8h0Z"/>
    <path class="st27" d="M298.7,712c-4.7-2.2-8.3-7.7-9.3-12.9s0-9.3,1.4-13.8l4.4,3.8c3,2.6,6.7-2.2,6.7-5.1s-2.2-5.3-6.1-5.7c4.5-5.1,12.2-4.6,17,.7s6.9,18.1,2,26.4-10,9.3-16,6.6h0Z"/>
  </g>
  <g id="Perro">
    <g id="Dog">
      <path class="st24" d="M1129.4,575.5c-1.1,1.4.7,5.5,1.6,7.2l14.2,25.9,16,42c.5,1.4,1,4.2.9,5.5-.5,1.1-2.4,0-3-.7l-8.5-9.2c-8.9-7.6-19.7-10.9-31.5-8.7-9.9,1.9-19.1,8.3-25,18.2-9.4,15.8-8.4,35.6,1,51.2l-3.8,5c-15.9-5.4-41-3-42.6,8.7-1.2.4-5-.9-4.3-1.9l7.9-10.2,7-7.1,6.5-6.3c1.4-1.4,1.3-6.3,2.1-8.1-3.7-.8-6.9,1.1-10,2.9-4.8,2.7-7.6,6.4-6.4,13.2-2,1.9-6.4,2.7-9.8,2.3,6-11.7,4-26.7-4.1-36.8s-22.3-11.7-32.4-3.1c-5.2,4.5-7.7,11.1-10.1,17.3l-6.3-1.6-10.5-3.1,11.4-29.4,9.1-24.9c5.2-14.3,11.7-27.3,19.6-40.3s2.5-5.5,2.8-7.7c34.3-14.9,73.9-14.8,108.4-.4h-.2Z"/>
      <path class="st9" d="M1202.8,704.8l1.1,7.9c6,50.8-35.6,78.7-81.3,89.4-42.3,9.9-94.7,6.4-133.3-13l.9-3.4c0-.8.3-3.7,1.1-3.6l4.9.3c1.7,0,2.9-3.6,2.7-5.3-.7-5.8-7.8-2-13.9-4.4l.4-13.6c1.5-.6,3.9-1.4,4.4-2.4s.3-3.8.2-5.7c3,1.4,8.8-.6,11-3.6l-5.7-.2-.5-3.5c0-.8-1.5-1.4-3.1-2.5,6.1-3.7,9.5-8.1,6.6-15.8l11.5-1.4c2.6-.3,5.4-2.4,5.1-4.9,10.8,1.8,21.6-3.7,26.7-13.5,3.4.4,7.8-.3,9.8-2.3-1.1-6.8,1.6-10.5,6.4-13.2s6.4-3.7,10-2.9c-.8,1.8-.7,6.7-2.1,8.1l-6.5,6.3-7,7.1-7.9,10.2c-.7,1,3.1,2.4,4.3,1.9-1.4,10.1,11.2,20.1,22.3,23.7,2.3,8.5-6.6,15.8-14.6,14.8-7.5-.2-13.6-4-15.4-11.5-.7-.5-2.5-1.5-3.3-1.4s-2,1.8-2.5,3.1c1.7,7.1,6.7,11.1,12.8,14.2,1.5,6.1,4.9,11.3,10,14.1-.7,7.1,4.4,13.8,10.9,15.9s15.1.2,18.7-6.8,3-6.8,2.8-9.1c6.4-2,6.6-9.8,10.4-13.7s10.8-6.9,11.8-14-.5-2.8-1.2-3.5-4.1.4-4.5,1.7c-2.3,7.2-9.5,11.5-17.5,11.1-7.7-.4-14.6-8-11.7-15.1,13.6-3.9,26.1-17.5,21.2-26.3s-4.7-5-7.5-6l3.8-5c5.9,9.9,15.8,17.3,27.2,20.5,19,5.3,37.7-4.3,44.1-22.9,5-14.7,3-30.2-4.3-44v-3.3c.6.6,2.1,2.7,2.5,3.8,7.3,19.3,16.5,43.1,38.2,43.7h0Z"/>
      <path class="st16" d="M1021,575.9c-.3,2.2-1.4,5.3-2.8,7.7-7.9,13-14.4,26-19.6,40.3l-9.1,24.9-11.4,29.4-5.2,9.3-3.7,5.1-6.9,6.8-2.9,2.1-9.2,3.3-5.8-.2c-15.7-.6-28.2-13.3-29.4-29.6s2-21.7,6.9-32c10.9-22.8,26.2-42.9,44.9-59.8,17.3-15.6,38.3-25.7,54.3-7.3h0Z"/>
      <path class="st16" d="M1202.8,704.8c-21.7-.6-30.9-24.4-38.2-43.7s-1.9-3.2-2.5-3.8v-1.1c0-1.3-.3-4-.9-5.5l-16-42-14.2-25.9c-.9-1.7-2.7-5.8-1.6-7.2,12.3-15.4,32.5-9.9,47.9,3.2,22.9,19.5,41.2,43.9,52.9,71.6,4.1,9.9,5.4,20.1,2.9,30.2-3.4,14.3-15.7,24.6-30.3,24.2h0Z"/>
      <path class="st24" d="M994.6,690.2c-.2,6.1,1.1,12.2,4.3,17.5-4.4,0-7.7,3.2-7.9,7.7l-5,2.9c-.5.8.9,4.1,2.3,4.5,5.3,1.9,12.8-1.8,17-7.9,2.3,1.7,6.6,3.5,9.5,4,.3,2.5-2.5,4.6-5.1,4.9l-11.5,1.4c3,7.7-.5,12-6.6,15.8,1.6,1.1,3,1.7,3.1,2.5l.5,3.5,5.7.2c-2.2,2.9-8,4.9-11,3.6,0,1.9.4,4.6-.2,5.7s-2.9,1.8-4.4,2.4l-.4,13.6c6.2,2.4,13.3-1.4,13.9,4.4s-1,5.4-2.7,5.3l-4.9-.3c-.8,0-1,2.8-1.1,3.6l-.9,3.4-15.6-9.7,9.3-2.3.6-7.1-11.9-1.3-3.6,6.4c-19.1-15.1-27.2-39.1-24.2-63.9l.4-6.5,5.8.2c1.3,0,3.8,1.1,4.9,1.7l3.1,2.8c.8.7,3.3-.8,4.2-1.7l-3-6,2.9-2.1,8.1,1.1-1.2-8,3.7-5.1c2.2.9,3.1,2.2,3.8,5.2l7.7,4.4,7.2-4.9,3-2h.2Z"/>
      <polygon class="st9" points="973.6 779.3 968.1 775 971.6 768.6 983.5 769.9 982.9 777 973.6 779.3"/>
      <path class="st17" d="M1162.2,656.1v4.4c7.3,13.8,9.2,29.3,4.3,44-6.4,18.6-25.2,28.2-44.1,22.9-11.3-3.2-21.2-10.6-27.2-20.5-9.4-15.6-10.4-35.4-1-51.2,5.9-10,15.1-16.3,25-18.2,11.8-2.3,22.6,1.1,31.5,8.7l8.5,9.2c.6.6,2.5,1.8,3,.7ZM1149.7,704.5c5.4-12.4,3.5-27.1-5.2-37s-19.6-10-28.8-3.4c-15.4,11.1-17.4,36.9-2.3,49.3s13.1,6.9,20.9,5,12.2-6.3,15.5-13.9h-.1Z"/>
      <path class="st27" d="M1091.3,712c2.8.9,6.3,3.8,7.5,6,5,8.8-7.6,22.4-21.2,26.3-2.9,7.2,4,14.7,11.7,15.1,7.9.4,15.2-3.9,17.5-11.1s3.6-2.5,4.5-1.7,1.4,2.5,1.2,3.5c-1,7.1-7.7,9.9-11.8,14s-4,11.6-10.4,13.7l-1.2-12.1c-5.7-1.4-10.4-4-14.8-7.2-4.7,2.8-9.2,5.4-15.1,6.7l-1.2,12.6c-5.1-2.8-8.5-8-10-14.1-6.1-3.1-11.1-7.1-12.8-14.2.5-1.4,1.5-3.1,2.5-3.1s2.6.9,3.3,1.4c1.8,7.4,7.9,11.2,15.4,11.5,8,1,16.8-6.3,14.6-14.8-11.1-3.6-23.7-13.6-22.3-23.7s26.7-14.1,42.6-8.7h0Z"/>
      <path class="st14" d="M1041.5,705.5c-5.1,9.8-15.9,15.3-26.7,13.5s-7.2-2.3-9.5-4-5-4.9-6.4-7.3c-3.2-5.3-4.5-11.4-4.3-17.5l.2-7.4c2.5-6.2,4.9-12.8,10.1-17.3,10.1-8.6,24-7.3,32.4,3.1s10.2,25.1,4.1,36.8h.1ZM1016.6,708.6c3,3.4,7.1,5.2,11,5s7.5-2.4,9.8-5.8c5.4-8.2,5.3-19-.2-26.9-4.5-6.5-13.1-8.2-18.4-2.9,3.4,1.1,5.5,2.9,5.7,5.6s-1.7,5.9-4.8,6.3-4.5-1.9-6.3-4.5c-3,7.8-2.4,16.9,3.3,23.3h0Z"/>
      <path class="st9" d="M994.8,682.9l-.2,7.4-3,2-7.2,4.9-7.7-4.4c-.8-3.1-1.7-4.3-3.8-5.2l5.2-9.3,10.5,3.1,6.3,1.6h0Z"/>
      <path class="st23" d="M1090.3,777.8c.2,2.3-1.7,6.9-2.8,9.1-3.6,7-11.6,9.1-18.7,6.8s-11.5-8.7-10.9-15.9l1.2-12.6c5.9-1.3,10.5-4,15.1-6.7,4.5,3.2,9.2,5.8,14.8,7.2l1.2,12.1h.1Z"/>
      <path class="st9" d="M959.2,701.5l3,6c-.8.9-3.4,2.4-4.2,1.7l-3.1-2.8c-1.1-.6-3.7-1.6-4.9-1.7l9.2-3.3h0Z"/>
      <polygon class="st9" points="962.1 699.4 969.1 692.6 970.3 700.5 962.1 699.4"/>
      <path class="st9" d="M998.9,707.7c1.5,2.4,4.1,5.6,6.4,7.3-4.2,6.1-11.7,9.8-17,7.9s-2.8-3.7-2.3-4.5l5-2.9c.2-4.5,3.5-7.9,7.9-7.7h0Z"/>
      <path class="st14" d="M1149.7,704.5c-3.4,7.6-9.1,12.3-15.5,13.9s-14.9,0-20.9-5c-15.1-12.4-13.1-38.2,2.3-49.3,9.2-6.6,21.1-5.3,28.8,3.4s10.7,24.6,5.2,37h.1ZM1112.1,710c5.2,5,12.7,4.5,17.4-.2,8.1-8.2,8.7-21.1,1.7-30s-12.3-6.6-17.4-1.8c2.5,1.3,4,2,4.9,2.8s1,3.6.8,4.7c-.4,2.5-3.3,4.7-5.7,4.5s-3.6-2.3-5.1-4.6c-3.5,7.5-3.1,18,3.5,24.5h-.1Z"/>
      <path class="st27" d="M1016.6,708.6c-5.6-6.4-6.3-15.6-3.3-23.3,1.8,2.6,4.1,4.7,6.3,4.5,3.1-.4,5-2.9,4.8-6.3s-2.3-4.5-5.7-5.6c5.3-5.3,13.9-3.6,18.4,2.9,5.5,7.9,5.7,18.8.2,26.9-2.3,3.5-6.2,5.6-9.8,5.8s-8-1.6-11-5h0Z"/>
      <path class="st27" d="M1112.1,710c-6.7-6.5-7-17.1-3.5-24.5,1.5,2.4,3.4,4.5,5.1,4.6s5.2-2.1,5.7-4.5,0-4-.8-4.7-2.4-1.5-4.9-2.8c5.1-4.8,12.9-4,17.4,1.8,7,8.9,6.5,21.8-1.7,30s-12.2,5.2-17.4.2h.1Z"/>
    </g>
  </g>
</svg>