<?xml version="1.0" encoding="UTF-8"?>
<svg id="Ariko_logo_mint" data-name="Ariko logo mint" xmlns="http://www.w3.org/2000/svg" viewBox="0 0 1020 288.83">
  <defs>
    <style>
      .cls-1 {
        fill: #0A0A0A;
      }
    </style>
  </defs>
  <path class="cls-1" d="M13.39,178.88c0-55.86,36.77-99.7,88.74-99.7,31.46,0,57.27,15.2,72.47,39.6h1.41l56.56-34.64h9.19v189.14h-87.67c4.95-15.2,7.07-30.76,7.42-47.02h-2.83c-9.54,28.64-32.17,51.97-65.05,51.97-47.02,0-80.25-40.66-80.25-99.34ZM165.05,177.82c0-20.5-15.2-35.71-35-35.71s-35.35,15.2-35.35,36.06,15.2,35.71,35.35,35.71,35-15.56,35-36.06Z"/>
  <path class="cls-1" d="M268.75,84.14h9.19l54.09,31.46h1.42c14.5-23.69,39.6-36.42,68.23-36.42,14.14,0,25.81,2.83,36.77,7.78l-.35,69.29c-2.12-.71-14.14-11.67-35-11.67-32.17,0-54.09,19.44-54.44,48.08v80.6h-79.9V84.14Z"/>
  <path class="cls-1" d="M443.9,37.82c0-17.68,15.56-27.22,44.9-27.22s44.55,9.54,44.55,27.22-15.2,27.57-44.55,27.57-44.9-9.9-44.9-27.57ZM449.91,84.14h79.54v189.14h-79.54V84.14Z"/>
  <path class="cls-1" d="M553.46,32.88h80.95v101.46h2.48l1.41-4.24c17.68-47.37,41.36-54.8,82.73-54.8,7.42,0,25.45,2.12,39.6,5.66l-7.42,72.83c-7.42-4.95-26.51-9.9-42.42-9.9-24.04,0-42.07,8.13-50.56,20.86l-.35.71,1.77,1.77c13.43-8.48,30.4-9.26,45.61-9.26,44.19,0,51.61,14.85,57.98,42.78l7.07,25.53c3.89,16.26,9.55,31.82,17.68,47.02h-120.55c-6.72-10.96-13.08-26.87-16.26-45.6l-4.24-25.81c-1.06-6.72-2.12-9.55-4.95-9.55-1.41,0-2.47.71-2.83,1.42,0,0-6.72,6.11-6.72,10.25v69.29h-80.95V32.88Z"/>
  <path class="cls-1" d="M779.29,178.88c0-56.92,44.55-99.7,113.84-99.7s113.48,42.78,113.48,99.7-44.19,99.34-113.48,99.34-113.84-42.78-113.84-99.34ZM927.07,178.88c0-20.86-14.5-34.65-33.94-34.65s-34.29,13.79-34.29,34.65,15.2,34.64,34.29,34.64,33.94-13.79,33.94-34.64Z"/>
</svg>