<?xml version="1.0" encoding="UTF-8"?>
<svg id="Kibo_logo_white" data-name="Kibo logo white" xmlns="http://www.w3.org/2000/svg" viewBox="0 0 842.16 288.83">
  <defs>
    <style>
      .cls-1 {
        fill: #fff;
      }
    </style>
  </defs>
  <path class="cls-1" d="M5.11,30.2h81.63v102.32h2.18l3.63-6.89c18.14-40.64,42.09-50.43,84.17-50.43,11.61,0,31.2,3.63,43.9,8.34l-6.89,59.5c-9.07-6.17-27.57-11.25-44.26-11.25-25.4,0-42.09,10.16-50.8,24.31l-1.09,1.45,1.81,1.45c11.61-7.26,25.04-11.25,38.1-11.25,38.46,0,48.25,16.33,55.87,42.45l13.43,41.36c4.72,15.96,11.25,30.48,20.32,45.35h-93.61c-8.34-11.25-14.51-26.12-18.87-43.54l-7.26-28.66c-3.27-11.97-10.16-17.42-17.42-17.42-5.08,0-9.43,2.54-12.7,5.81l-10.52,17.05v66.76H5.11V30.2Z"/>
  <path class="cls-1" d="M250.78,35.28c0-18.14,15.96-27.94,46.08-27.94s45.72,9.8,45.72,27.94-15.6,28.3-45.72,28.3-46.08-10.16-46.08-28.3ZM256.95,82.81h81.63v194.11h-81.63V82.81Z"/>
  <path class="cls-1" d="M449.36,237.01h-1.81c.73,14.51,3.27,26.48,7.62,39.91h-89.62V30.2h81.27v91.43h2.18c15.24-26.49,39.55-43.9,72.57-43.9,49.34,0,86.71,43.9,86.71,101.23s-37.73,103.04-87.08,103.04c-32.65,0-57.33-18.14-71.84-44.99ZM524.46,179.32c0-22.49-17.05-39.19-38.82-39.19s-38.46,16.33-38.46,38.82,16.33,39.18,38.46,39.18,38.82-16.69,38.82-38.82Z"/>
  <path class="cls-1" d="M604.1,180.04c0-58.42,45.72-102.32,116.83-102.32s116.46,43.9,116.46,102.32-45.35,101.95-116.46,101.95-116.83-43.9-116.83-101.95ZM755.76,180.04c0-21.41-14.88-35.56-34.83-35.56s-35.19,14.15-35.19,35.56,15.6,35.56,35.19,35.56,34.83-14.15,34.83-35.56Z"/>
</svg>